<?xml version="1.0" encoding="utf-8"?>
<!-- Generator: Adobe Illustrator 18.0.0, SVG Export Plug-In . SVG Version: 6.00 Build 0)  -->
<svg version="1.1" id="Layer_1" xmlns="http://www.w3.org/2000/svg" xmlns:xlink="http://www.w3.org/1999/xlink" x="0px" y="0px"
	 viewBox="0 0 1400 980" enable-background="new 0 0 1400 980" xml:space="preserve">
<g>
	<path fill="#ED1C24" d="M112.1,601.1c14.7-0.3,23.1-8.5,25.3-11.1c2.1-2.4,3.6-4.9,4.4-6.1c-5.9-2-20-6.1-31.5-9
		c-0.1,1.4-0.1,3-0.1,4.7C110.3,584.3,111,592.4,112.1,601.1z"/>
	<path fill="#231F20" d="M154.1,592.4h57.7h57.7c0.9-1.7,4.3-7.3,10.8-9.7c3.8-1.4,19.8-6.1,32.8-9.5c-0.8-7.6-3-9.9-3-9.9l-0.2-0.2
		v-0.3c0-0.1,0-2.4-0.2-5.8c-2.5,2.3-8.1,7-14.6,8.2c-8.4,1.5-80.3,1.5-83.3,1.5c-3.1,0-74.9,0-83.3-1.5c-6.5-1.2-12.2-5.9-14.6-8.2
		c-0.1,3.4-0.2,5.8-0.2,5.8v0.3l-0.2,0.2c0,0-2.2,2.4-3,9.9c13,3.3,29,8.1,32.8,9.5C149.8,585.1,153.2,590.7,154.1,592.4z"/>
	<path fill="#ED1C24" d="M286.1,590c2.2,2.6,10.6,10.8,25.3,11.1c1.2-8.7,1.9-16.8,1.9-21.5c0-1.8,0-3.3-0.1-4.7
		c-11.5,3-25.7,7-31.5,9C282.4,585.1,284,587.6,286.1,590z"/>
	<path fill="#ED1C24" d="M110.5,601.1c-1.2-8.7-1.9-16.6-1.9-21.5c0-1.9,0-3.6,0.1-5.2c-7.2-1.8-13.1-3.1-14.8-3.1
		c-0.2,0-0.3,0-0.4,0c-2.3,0.8-6.3,11.1-6,18.6C87.9,596.8,96.4,600.9,110.5,601.1z"/>
	<rect x="503.7" y="272.5" fill="#231F20" width="67.2" height="18.1"/>
	<path fill="#231F20" d="M312.8,602.7c-1.2,8.3-2.7,17.1-4.5,24.2c6.4-0.5,11.1-1.2,13.3-2c5.8-2.1,10.2-6.3,12.4-11.7
		c2-5,1.9-10.5-0.3-15.7C329.5,600.8,322.4,602.6,312.8,602.7z"/>
	<path fill="#231F20" d="M284.8,591.1c-2.3-2.7-4-5.4-4.7-6.6c-6.4,2.7-9.4,9.1-9.5,9.1l-0.2,0.5l-0.5,0h-58.2H153l-0.2-0.5
		c0-0.1-3-6.4-9.5-9.1c-0.7,1.2-2.4,4-4.7,6.6c-2.3,2.7-11,11.3-26.3,11.6c1.2,8.5,2.7,17.4,4.6,24.4c30.6,2.4,94.1,2.3,94.8,2.3
		l0,0.8l0-0.8c0.8,0,64.2,0.1,94.8-2.3c1.8-7,3.4-15.9,4.6-24.4C295.9,602.3,287.2,593.7,284.8,591.1z"/>
	<path fill="#231F20" d="M211.8,630.9c-0.3,0-1.1,0-2.2,0c-11.8,0-64.4-0.1-92.2-2.2c1.3,4.7,2.7,8.4,4.2,10.1
		c6,7.2,18.4,8.6,38.1,10.1c19.9,1.5,51.7,1.7,52.2,1.7c0.4,0,32.3-0.2,52.2-1.7c19.7-1.5,32-2.9,38.1-10.1
		c1.5-1.7,2.9-5.4,4.2-10.1c-27.8,2.1-80.4,2.2-92.2,2.2C212.8,630.9,212,630.9,211.8,630.9z"/>
	<path fill="#231F20" d="M139.6,509.9c1.9-3.3,4.7-8.5,4.8-10c0.1-0.7-3.1-1.9-6.5-2.5l-5.9,12.5H139.6z"/>
	<path fill="#231F20" d="M98.8,558.2c2-1.7,3.6-3.1,4.5-4.6c-3.4,0-12.6,0.3-16.7,2.1c-3,1.3-4.4,5.1-4.9,6.6
		c-0.8,2.9-0.7,5.1-0.3,5.7c0.7,1.1,4.6,1.6,7.4,1.7C91.9,564.1,95.7,560.8,98.8,558.2z"/>
	<path fill="#ED1C24" d="M330,571.3c-1-0.3-7.4,1.1-15.2,3.1c0.1,1.5,0.2,3.3,0.1,5.2c-0.1,4.8-0.8,12.8-1.9,21.5
		c14.1-0.2,22.6-4.3,23-11.1C336.4,582.4,332.3,572.1,330,571.3z"/>
	<path fill="#231F20" d="M291.4,509.9l-5.9-12.5c-3.5,0.6-6.6,1.8-6.5,2.5c0.2,1.5,2.9,6.7,4.8,10H291.4z"/>
	<path fill="#231F20" d="M94.1,703.3c-4.6,0-8.3,0-9.6-0.2c-1.9-0.2-3.8-5.5-5.3-11.1v39.3c0,6.7,5.5,12.2,12.2,12.2h10.9
		c6.7,0,12.2-5.5,12.2-12.2v-28.2c-1,0-2.1,0-3.1,0C105.7,703.3,99.3,703.3,94.1,703.3z"/>
	<path fill="#231F20" d="M339,703.2c-1.3,0.1-5,0.2-9.6,0.2c-5.2,0-11.5-0.1-17.2-0.1c-1.1,0-2.1,0-3.1,0v28.2
		c0,6.7,5.5,12.2,12.2,12.2h10.9c6.7,0,12.2-5.5,12.2-12.2v-39.3C342.8,697.7,340.9,703,339,703.2z"/>
	<path fill="#231F20" d="M332.3,656.6c-11.7,2.1-26.4,5.4-33.4,10.1v5.7h26.9C328.6,668.5,332.7,661.9,332.3,656.6z"/>
	<path fill="#231F20" d="M295.1,670.9l-0.2,0.5h-83.2h-83.2l-0.2-0.5c-0.4-1-1.1-2-2.2-2.9v6.1H98.9c0.5,0.7,0.9,1.2,1.2,1.5h111.7
		h111.7c0.2-0.3,0.7-0.8,1.2-1.5h-27.3V668C296.2,668.9,295.5,669.9,295.1,670.9z"/>
	<path fill="#231F20" d="M324.4,676.9l-0.2,0.3H211.8H99.4l-0.2-0.3c-0.4-0.5-10.3-11.9-9.5-20.6c-6.7-1.1-12.3-1.8-14.4-2.1
		c1.2,23.4,7.2,46.4,9.5,47.3c2.7,0.3,16.5,0.1,26.6,0.1c4.3,0,8-0.1,10.4-0.1c7.7,0,11.6-2.4,11.7-2.4l0.2-0.1l0.2,0h78H290
		l0.2,0.1c0,0,4,2.4,11.7,2.4c2.3,0,6.1,0,10.4,0.1c10.1,0.1,24,0.2,26.6-0.1c2.3-0.9,8.3-23.9,9.5-47.3c-2.1,0.2-7.6,0.9-14.4,2.1
		C334.7,665,324.8,676.4,324.4,676.9z"/>
	<path fill="#231F20" d="M97.7,672.5h26.9v-5.7c-7-4.7-21.7-8.1-33.4-10.1C90.8,661.9,94.8,668.5,97.7,672.5z"/>
	<path fill="#231F20" d="M443.1,700.6c-6.3,0-11.7,3.1-11.7,6.7c0,3.6,5.3,6.7,11.7,6.7s11.7-3.1,11.7-6.7
		C454.8,703.7,449.4,700.6,443.1,700.6z"/>
	<path fill="#ED1C24" d="M448.1,610.7c-22.1,3.5-34.4,12.2-36.5,13.7v11h51.1l-7-25.7C452.9,610,450.3,610.3,448.1,610.7z"/>
	<polygon fill="#231F20" points="496.5,635.6 496.5,654.7 578,654.7 578,635.6 537.3,635.6 	"/>
	<path fill="#ED1C24" d="M618.8,609.7l-7,25.7h51.1v-11c-2-1.5-14.3-10.2-36.5-13.7C624.2,610.3,621.6,610,618.8,609.7z"/>
	<path fill="#231F20" d="M670.7,702.9c-4.3,9.4-12.6,17.8-13,18.1l-0.2,0.2h-22.8v10.1c0,6.7,5.4,12.1,12.1,12.1h15.1
		c3.2,0,6.3-1.3,8.6-3.6c2.3-2.3,3.5-5.3,3.5-8.6l-0.1-40.2C673.2,695.7,672.1,699.8,670.7,702.9z"/>
	<path fill="#231F20" d="M336.9,579.5l-0.3-1c-3.1-10.6-8.5-15.3-12.9-19c-2.3-2-4.3-3.7-5.3-5.8c-0.5-1-1.2-2.8-2.1-5.4
		c-4.2-11.2-13.7-36.7-25.3-43l3,6.3h-11.1l-0.2-0.4c-0.3-0.6-2.5-4.2-3.9-7.3l-67-3l-67,3c-1.5,3.1-3.6,6.7-3.9,7.3l-0.2,0.4h-11.1
		l3-6.3c-11.6,6.3-21.1,31.8-25.3,43c-1,2.6-1.6,4.4-2.1,5.4c-1,2.1-3,3.9-5.3,5.8c-4.4,3.8-9.8,8.4-12.9,19l-0.3,1
		c-4.6,15.8-8.9,30.8-11.2,56.8c-0.5,5.2-0.5,10.8-0.3,16.3c6.1,0.7,49.1,5.9,54.6,17.2h82.1h82.1c5.4-11.3,48.5-16.5,54.6-17.2
		c0.2-5.5,0.2-11.1-0.3-16.3C345.8,610.3,341.5,595.3,336.9,579.5z M337.6,590c-0.1,2.5-1.1,4.6-2.8,6.4c2.6,5.7,2.8,11.8,0.6,17.4
		c-2.3,5.8-7.1,10.3-13.3,12.6c-2.3,0.9-7.4,1.5-14.2,2.1c-1.4,5.2-3,9.4-4.6,11.3c-6.4,7.6-19.1,9.1-39.2,10.7
		c-20,1.5-52,1.7-52.3,1.7l0-0.8l0,0.8c-0.3,0-32.3-0.2-52.3-1.7c-20.1-1.5-32.7-3-39.2-10.7c-1.6-1.9-3.2-6-4.6-11.3
		c-6.8-0.6-11.9-1.3-14.2-2.1c-6.2-2.3-11-6.8-13.3-12.6c-2.2-5.6-2-11.8,0.6-17.4c-1.7-1.8-2.7-3.9-2.8-6.4
		c-0.4-7.7,3.6-19,7.1-20.2c1.3-0.4,7.8,1,15.9,3c0.7-6.7,2.5-9.6,3.2-10.4c0-2.6,0.2-20.5,3.7-30.7c3.8-11.3,8.7-15,16.4-17.8
		c7.9-2.9,76.7-2.7,79.6-2.7c2.9,0,71.7-0.2,79.6,2.7c7.7,2.8,12.6,6.5,16.4,17.8c3.5,10.2,3.7,28.1,3.7,30.7
		c0.7,0.8,2.5,3.7,3.2,10.4c8-2,14.6-3.4,15.9-3C334,571,338,582.3,337.6,590z"/>
	<path fill="#231F20" d="M537.3,199c0.8,0,49.1-0.7,71.5,3.2c-3.5-4.2-6.4-7.3-7.2-8.2c-12.6-1.4-45.9-1.9-64.3-2
		c-18.4,0.1-51.7,0.7-64.3,2c-0.8,0.8-3.6,4-7.2,8.2C488.1,198.4,536.5,199,537.3,199z"/>
	<path fill="#231F20" d="M662.3,615.2c-5-7.6-11-12.3-16.3-16.5c-4.9-3.8-9.1-7.2-11.6-11.8c-1.3-2.4-2.8-5.6-4.3-8.9
		c-4.7-10.1-10.5-22.6-17.8-26.8c-9.7-5.7-73.8-7.2-75-7.2c-1.1,0-65.3,1.6-75,7.2c-7.3,4.3-13.1,16.8-17.8,26.8
		c-1.5,3.3-3,6.5-4.3,8.9c-2.6,4.7-6.8,8-11.6,11.8c-5.3,4.2-11.3,8.9-16.3,16.5c-9.8,14.7-11,28.8-11.6,43.1
		c-0.2,5.2-0.2,11,0,16.7c4.1-2,13.2-2.5,14.4-2.6l122.2,0h122.1c1.2,0.1,10.3,0.6,14.4,2.6c0.2-5.7,0.2-11.4,0-16.7
		C673.3,644,672,629.9,662.3,615.2z M460.2,560.2l0.5-0.2c0.1-0.1,3.7-1.3,11.9-2.9c8.2-1.5,62.3-4.3,64.6-4.4l0,0.8l0-0.8
		c2.3,0.1,56.5,2.8,64.6,4.4c8.2,1.5,11.7,2.8,11.9,2.9l0.5,0.2v31.5l-0.8,0c-0.6,0-62.7-0.8-76.2-1c-13.5,0.1-75.6,1-76.2,1l-0.8,0
		V560.2z M605.3,634.9c-0.1,0.5-1.4,11.1-8.6,16.8l-1-1.3c5.5-4.3,7.4-12.2,7.9-14.8h-23.9v20.6h-84.7v-20.6H471
		c0.5,2.7,2.3,10.5,7.9,14.8l-1,1.3c-7.3-5.7-8.6-16.4-8.6-16.8l-0.1-0.9h25.8h42.3h42.3h25.8L605.3,634.9z M664.5,637.1h-54.8
		l7.5-27.5c-28.3-2.6-79.3-1.9-79.9-1.9l0-0.8l0,0.8c-0.6,0-51.6-0.7-79.9,1.9l7.5,27.5H410v-13.4l0.3-0.2
		c0.5-0.4,12.9-10.4,37.5-14.3c24.4-3.9,88.5-3,89.4-3c1,0,65-0.9,89.4,3c24.6,3.9,37,13.9,37.5,14.3l0.3,0.2V637.1z"/>
	<path fill="#ED1C24" d="M619.6,300.2c6.7,0,30.7-0.5,36.9-4c8.3-4.7,7.4-26.1,6.9-33c-1.3-1.4-3.4-3.1-5.5-4.8c-1.2-1-2.4-2-3.6-3
		h-8.5C643.7,259.6,628.2,289.4,619.6,300.2z"/>
	<path fill="#231F20" d="M416.8,721.1c-0.4-0.4-8.6-8.7-13-18.1c-1.5-3.2-2.5-7.3-3.2-11.7l-0.1,40.2c0,3.2,1.3,6.3,3.5,8.6
		c2.3,2.3,5.3,3.6,8.6,3.6h15.1c6.7,0,12.1-5.4,12.1-12.1v-10.1h-22.8L416.8,721.1z"/>
	<path fill="#231F20" d="M427.5,597.4c3.8-3,7.1-5.6,9.5-8.8c0.1-1.6-0.2-5.2-2.1-5.9c-1.6-0.6-9.5,0.1-15.3,3
		c-2.8,1.4-4.5,3.1-4.9,4.8c-0.3,1.1-0.1,2.1,0.5,3.1c2.1,3.3,8.9,4.9,10.5,5.2C426.3,598.4,426.9,597.9,427.5,597.4z"/>
	<path fill="#231F20" d="M657.9,718.6c2.5-2.8,8.1-9.3,11.3-16.3c2.6-5.7,4-15.4,4.5-25.5c-2.6-1.8-11.2-2.6-14.4-2.8l-122.1,0
		H415.1c-3.2,0.2-11.7,1-14.3,2.8c0.5,10.1,1.9,19.7,4.5,25.5c3.2,7,8.8,13.5,11.3,16.3c0.1-3.1,0.5-9.6,1.3-17.2
		c0.4-3.7,1.7-6.5,3.9-8.3c2.8-2.3,6-2.1,6.5-2h108.9h108.9c0.5,0,3.7-0.2,6.5,2c2.2,1.8,3.5,4.6,3.9,8.3
		C657.4,708.9,657.7,715.4,657.9,718.6z"/>
	<path fill="#231F20" d="M647,597.4c0.6,0.5,1.2,0.9,1.8,1.4c1.6-0.3,8.4-1.9,10.5-5.2c0.6-1,0.8-2,0.5-3.1
		c-0.5-1.8-2.2-3.4-4.9-4.8c-5.8-2.9-13.7-3.6-15.3-3c-1.8,0.7-2.1,4.4-2.1,5.9C639.9,591.8,643.2,594.4,647,597.4z"/>
	<polygon fill="#231F20" points="537.3,710 473.4,710 461.3,719.7 537.3,719.7 613.2,719.7 601.1,710 	"/>
	<path fill="#231F20" d="M651.6,694.3c-2.4-2-5.3-1.7-5.4-1.7l-0.1,0H537.3h-109l0,0c-0.3,0-7.7-0.7-8.7,8.9c-0.6,6-1,11.4-1.2,14.9
		h36.3l16.3-13.3h66.4h66.4l16.3,13.3h36.3c-0.2-3.5-0.5-8.9-1.2-14.9C654.6,698.3,653.5,695.8,651.6,694.3z M443.1,715.7
		c-7.5,0-13.3-3.7-13.3-8.3c0-4.7,5.8-8.3,13.3-8.3c7.5,0,13.3,3.7,13.3,8.3C456.4,712,450.5,715.7,443.1,715.7z M631.4,715.7
		c-7.5,0-13.3-3.7-13.3-8.3c0-4.7,5.8-8.3,13.3-8.3s13.3,3.7,13.3,8.3C644.7,712,638.9,715.7,631.4,715.7z"/>
	<path fill="#231F20" d="M656.2,718.1h-36.9L603,704.8h-65.8h-65.8l-16.3,13.3h-36.9c0,0.7,0,1.2-0.1,1.6h40.5l14.1-11.3h64.4h64.4
		l14.1,11.3h40.5C656.3,719.3,656.2,718.8,656.2,718.1z"/>
	<path fill="#231F20" d="M324.7,558.2c3,2.6,6.8,5.9,10,11.5c2.8-0.1,6.6-0.6,7.4-1.7c0.4-0.6,0.6-2.8-0.3-5.7
		c-0.5-1.5-1.8-5.3-4.9-6.6c-4.1-1.8-13.3-2.1-16.7-2.1C321.2,555.2,322.8,556.5,324.7,558.2z"/>
	<path fill="#231F20" d="M631.4,700.6c-6.3,0-11.7,3.1-11.7,6.7c0,3.6,5.3,6.7,11.7,6.7s11.7-3.1,11.7-6.7
		C643.1,703.7,637.8,700.6,631.4,700.6z"/>
	<path fill="#231F20" d="M89.9,597.5c-2.2,5.1-2.3,10.7-0.3,15.7c2.2,5.4,6.6,9.6,12.4,11.7c2.1,0.8,6.9,1.4,13.3,2
		c-1.8-7.1-3.4-15.9-4.5-24.2C101.1,602.6,94,600.8,89.9,597.5z"/>
	<path fill="#ED1C24" d="M1284,259.1l-40.1-0.8c0.5,3,2.2,12.5,6.8,16.9c4.1,4,12.9,5.6,23.4,6.6
		C1278.8,271.2,1282,263.9,1284,259.1z"/>
	<path fill="#ED1C24" d="M1285.3,282.8c9.2,0.7,17,0.9,21.9,0.9h0c1.9,0,3.4,0,4.2,0c-0.1-5.4-0.8-17.5-3.8-20.5
		c-3-3-16.3-3.9-21.8-4.1c-2,4.7-5.2,12.1-10,22.9c3,0.3,6.2,0.5,9.4,0.8L1285.3,282.8z"/>
	<path fill="#231F20" d="M1116.8,301.3c1.6,0.5,2.5,0.1,2.5,0.1l0.2-0.1h68.6h0.5h68.6l0.2,0.1c0,0,0.9,0.5,2.6-0.1
		c2.4-0.8,7.3-4.3,13.5-17.9c-10.7-1.1-19.5-2.8-23.8-7c-1.1-1-2-2.3-2.8-3.7h-58.2h-0.5h-58.2c-0.8,1.4-1.7,2.6-2.8,3.7
		c-4.4,4.3-13.1,5.9-23.8,7C1109.4,297.1,1114.4,300.6,1116.8,301.3z M1148.3,277.6h80v17.6h-80V277.6z"/>
	<rect x="1149.9" y="279.2" fill="#231F20" width="76.8" height="14.4"/>
	<path fill="#231F20" d="M305.7,356l0-0.4c0-0.1-0.3-3.7-1.2-8.4h-52.3v2h-40.4h-40.4v-2H119c-0.9,4.7-1.2,8.3-1.2,8.4l0,0.4
		l-15.1,10c14.1,0.9,41.6,1.3,79.6,1.3c16.8,0,29.4-0.1,29.5-0.1c0.1,0,12.8,0.1,29.5,0.1c38,0,65.5-0.5,79.6-1.3L305.7,356z"/>
	<path fill="#231F20" d="M1061.7,313.7c9.7-0.4,98.2-3.9,126.6-3.6c28.4-0.2,116.9,3.3,126.6,3.6c0-2.7-0.1-12,0-30.4
		c0.2-21.3-6.5-23.6-6.6-23.6l-0.1,0l-0.1-0.1c-3.9-2.8-10.8-5-19.5-6.8c-0.3,0.8-1,2.3-2.1,4.9c4.3,0.1,18.6,0.9,22.3,4.5
		c4.2,4.2,4.3,21.7,4.3,22.4v0.8l-0.8,0c0,0-1.9,0.1-5,0.1c0,0,0,0,0,0c-4.9,0-12.7-0.2-22-0.9l-0.2,0c-3.4-0.3-6.8-0.5-10-0.8
		c-6.3,14-11.5,18.2-14.8,19.3c-0.8,0.3-1.4,0.3-2,0.3c-0.8,0-1.3-0.2-1.6-0.3h-68.2h-0.5h-68.2c-0.3,0.1-0.8,0.3-1.6,0.3
		c-0.5,0-1.2-0.1-2-0.3c-3.3-1.1-8.5-5.3-14.8-19.3c-3.2,0.3-6.5,0.6-10,0.8l-0.2,0c-9.2,0.7-17.1,0.9-22,0.9c-3.2,0-5-0.1-5-0.1
		l-0.8,0v-0.8c0-0.7,0-18.2,4.3-22.4c3.7-3.7,18-4.4,22.3-4.5c-1.1-2.5-1.7-4.1-2.1-4.9c-8.7,1.8-15.6,4.1-19.5,6.8l-0.1,0.1l-0.1,0
		c-0.1,0-6.8,2.3-6.6,23.6C1061.8,301.6,1061.7,311,1061.7,313.7z"/>
	<path fill="#ED1C24" d="M1069,263.2c-3,3-3.7,15.1-3.8,20.5c0.8,0,2.3,0,4.2,0c4.9,0,12.7-0.2,21.9-0.9l0.2,0
		c3.2-0.2,6.3-0.5,9.4-0.8c-4.8-10.8-8-18.2-10-22.9C1085.2,259.3,1072,260.2,1069,263.2z"/>
	<path fill="#231F20" d="M87.5,358.7v31.9c0,3.6,2.9,6.6,6.6,6.6H111c3.6,0,6.6-2.9,6.6-6.6v-22.4c-13.9-0.4-24-1.1-26-2.1
		C89.9,365.4,88.6,362.6,87.5,358.7z"/>
	<path fill="#231F20" d="M1064.4,365.6c0.7,0.3,2.1,0.5,4.2,0.8c5.4-4.8,21.9-7.4,22.6-7.5l0.2,1.6c-0.2,0-14.4,2.2-20.5,6.1
		c20.4,1.9,80.3,2.6,117.1,2.7l0.3,0l0.3,0c36.7-0.1,96.7-0.8,117.1-2.7c-6.1-3.9-20.3-6.1-20.5-6.1l0.2-1.6
		c0.7,0.1,17.2,2.6,22.6,7.5c2-0.2,3.5-0.5,4.2-0.8c8.1-3.2,12.3-19,12.6-20.4c0-2.7,0.5-59.3,0-63.8c-0.5-4.4-6.4-12.6-6.5-12.7
		l-0.1-0.2l0-0.2c0-0.1-0.4-5.5-1.8-9.5c-1.1-3.2-9.1-10.2-12.1-12.6l-0.1-0.1l-0.1-0.2c-8.4-16.2-25.3-47.7-29.7-50.7
		c-4.3-2.9-55.9-6.2-85.8-7.7l-0.2,0l0,0l-0.1,0l-0.2,0c-29.9,1.5-81.5,4.8-85.8,7.7c-4.4,3-21.4,34.5-29.7,50.7l-0.1,0.2l-0.1,0.1
		c-3,2.4-11,9.4-12.1,12.6c-1.4,4-1.7,9.4-1.8,9.5l0,0.2l-0.1,0.2c-0.1,0.1-6,8.3-6.5,12.7c-0.5,4.5,0,61.1,0,63.8
		C1052.1,346.5,1056.3,362.4,1064.4,365.6z M1101.4,364.6c-4.8,0-8.6-3.9-8.6-8.6c0-4.8,3.9-8.6,8.6-8.6s8.6,3.9,8.6,8.6
		C1110.1,360.8,1106.2,364.6,1101.4,364.6z M1264.6,359.2c-9.4-0.3-71.6-0.8-76.4-0.8c-4.7,0-67,0.5-76.4,0.8l0-1.6
		c9.3-0.3,69.8-0.8,76.1-0.8v0c0,0,0.1,0,0.3,0c0.2,0,0.2,0,0.3,0v0c6.4,0.1,66.9,0.6,76.1,0.8L1264.6,359.2z M1275.1,364.6
		c-4.8,0-8.6-3.9-8.6-8.6c0-4.8,3.9-8.6,8.6-8.6s8.6,3.9,8.6,8.6C1283.7,360.8,1279.9,364.6,1275.1,364.6z M1308.4,336.3
		c-11.2-2.2-114-2.7-120.1-2.7c-6.1,0-108.9,0.4-120.1,2.7l-0.3-1.6c11.3-2.3,110.9-2.7,120.1-2.7v0c0.1,0,0.2,0,0.3,0
		c0.1,0,0.2,0,0.3,0v0c9.2,0,108.8,0.4,120.1,2.7L1308.4,336.3z M1087.7,234.6c0.9-5.1,13.7-29.7,14.3-30.8l0.2-0.3l0.3-0.1
		c5.9-1.9,73.7-4.6,84.7-5v-0.1l1.1,0l1.1,0v0.1c11.1,0.4,78.8,3.2,84.7,5l0.3,0.1l0.2,0.3c0.5,1,13.4,25.7,14.3,30.8l0.2,1
		l-100.8-2.7l-100.7,2.7L1087.7,234.6z M1060,314.5c0-0.1,0.2-9.1,0-31.2c-0.2-21.3,6.4-24.7,7.6-25.2
		c19.8-13.9,111.6-14.9,120.3-15v0c0.1,0,0.2,0,0.3,0c0.1,0,0.2,0,0.3,0v0c8.8,0.1,100.6,1.1,120.3,15c1.2,0.4,7.8,3.9,7.6,25.2
		c-0.2,22.2,0,31.1,0,31.2l0,0.9l-0.9,0c-1,0-97-3.9-127.1-3.7v0c-0.1,0-0.2,0-0.3,0c-0.1,0-0.2,0-0.3,0v0
		c-30.1-0.2-126.2,3.6-127.1,3.7l-0.9,0L1060,314.5z"/>
	<path fill="#231F20" d="M1058.6,258.2c1.4-4.1,11.2-12.1,12.5-13.2c0.1-0.2,0.3-0.5,0.5-0.9c-3-0.2-11.1-0.3-14.5,3.3
		c-1.3,1.3-1.9,2.9-1.8,4.5c0.1,2.6,1.8,5,3.2,6.4C1058.6,258.3,1058.6,258.3,1058.6,258.2z"/>
	<path fill="#231F20" d="M119.3,345.6h52v-3.2h-51.2C119.8,343.5,119.6,344.6,119.3,345.6z"/>
	<path fill="#231F20" d="M1312.8,367.1c-2.4,1-12.4,1.7-25.8,2.2v18.2c0,5.4,4.4,9.7,9.7,9.7h18.4c5.4,0,9.7-4.4,9.7-9.7v-36.9
		C1322.8,356.2,1318.9,364.7,1312.8,367.1z"/>
	<path fill="#231F20" d="M1317.9,258.2c0,0,0,0.1,0,0.1c1.4-1.5,3.1-3.9,3.2-6.4c0.1-1.7-0.5-3.2-1.8-4.5
		c-3.4-3.6-11.5-3.5-14.5-3.3c0.2,0.4,0.4,0.8,0.5,0.9C1306.7,246.1,1316.5,254.1,1317.9,258.2z"/>
	<path fill="#ED1C24" d="M1125.9,275.2c4.5-4.4,6.3-13.9,6.8-16.9l-40.1,0.8c2.1,4.8,5.3,12.1,10,22.8
		C1112.9,280.8,1121.8,279.2,1125.9,275.2z"/>
	<path fill="#231F20" d="M1051.7,350.6v36.9c0,5.4,4.4,9.7,9.7,9.7h18.4c5.4,0,9.7-4.4,9.7-9.7v-18.2c-13.4-0.5-23.4-1.3-25.8-2.2
		C1057.7,364.7,1053.7,356.2,1051.7,350.6z"/>
	<path fill="#231F20" d="M1134.5,256.7l-0.1,0.9c0,0.4-0.9,7.6-3.8,13.5h57.4h0.5h57.4c-2.9-6-3.7-13.1-3.8-13.5l-0.1-0.9l42.7,0.8
		c1.1-2.6,1.8-4.2,2.2-5.2c-34.6-6.9-94-7.5-98.6-7.6c-4.6,0-64.1,0.7-98.6,7.6c0.4,0.9,1.1,2.6,2.2,5.2L1134.5,256.7z"/>
	<path fill="#231F20" d="M1275.1,349c-3.9,0-7,3.1-7,7c0,3.9,3.1,7,7,7s7-3.1,7-7C1282.1,352.1,1279,349,1275.1,349z"/>
	<path fill="#231F20" d="M1101.4,349c-3.9,0-7,3.1-7,7c0,3.9,3.1,7,7,7s7-3.1,7-7C1108.4,352.1,1105.3,349,1101.4,349z"/>
	<path fill="#231F20" d="M171.3,325.3h-41c-4.9,2-8,8.9-9.8,15.5h50.8V325.3z"/>
	<polygon fill="#231F20" points="192.9,257.9 200.7,270.5 211.8,270.5 222.8,270.5 230.6,257.9 211.8,257.9 	"/>
	<path fill="#231F20" d="M291.8,250.1c2.7-1.2,4.9-2.7,6.9-4.2h-86.9h-86.9c2,1.5,4.2,3,6.9,4.2c8.1,3.5,35.5,6.1,36.7,6.3h43.4
		h43.4C256.3,256.2,283.7,253.6,291.8,250.1z"/>
	<path fill="#231F20" d="M269.5,270.8h-0.3l-14.4-12.8h-22.4l-8.8,14.2h-11.9h-11.9l-8.8-14.2h-22.4l-14.4,12.8H154
		c-0.2,0-17.9,0-27.2-0.2c-1.6,0-3.4,0.1-5.3,0.4c1.6,8.8,4.5,16.5,8.8,21.6c1.6,1.9,3,3.6,4.3,5h77.1h77.1c1.3-1.4,2.7-3.1,4.3-5
		c4.3-5.2,7.2-12.9,8.8-21.7c-1.9-0.3-3.7-0.4-5.3-0.4C287.5,270.8,269.7,270.8,269.5,270.8z"/>
	<path fill="#ED1C24" d="M292.5,251.6c-7.3,3.1-28.9,5.5-35.4,6.2l12.8,11.4c2.4,0,18.3,0,26.9-0.2c0.2,0,0.3,0,0.5,0
		c1.6,0,3.3,0.1,5.1,0.4c1.3-7.9,1.6-16.6,0.9-24.9c-0.7,0.5-1.4,1-2.1,1.6C298.9,247.8,296,250,292.5,251.6z"/>
	<path fill="#231F20" d="M136.1,299.2c7.4,7.6,11.3,7.7,22.8,8c4.2,0.1,11,0.2,20.1,0.2c15.5,0,32.6-0.2,32.7-0.2
		c0.2,0,17.3,0.2,32.8,0.2c0,0,0,0,0,0c9.1,0,15.8-0.1,20-0.2c11.5-0.3,15.4-0.4,22.8-8h-75.6H136.1z"/>
	<path fill="#231F20" d="M104.6,248l-0.1,0.1c-0.1,0.1-9.3,8-11,12c-1.6,4,0,11.5,0,11.6l0.1,0.5l-0.3,0.3
		c-0.1,0.1-6.1,5.8-8.6,21.6c-2.8,18,1.6,67.7,7.6,70.7c0.8,0.4,3.4,0.8,7.7,1.1l16.3-10.8c0.3-3.5,2.9-27,13.7-31.3l0.1-0.1h81.7
		h81.7l0.1,0.1c10.8,4.3,13.4,27.8,13.7,31.3l16.3,10.8c4.3-0.3,6.9-0.7,7.7-1.1c6-3,10.4-52.6,7.6-70.7
		c-2.5-15.8-8.6-21.6-8.6-21.6l-0.3-0.3l0.1-0.5c0-0.1,1.6-7.6,0-11.6c-1.6-4.1-10.9-12-11-12l-0.1-0.1l-0.1-0.2
		c-6.7-13.9-25.3-50.5-31.4-52.7c-7.5-2.8-74.9-2.8-75.6-2.8c-0.7,0-68.1,0-75.6,2.8c-6.1,2.3-24.8,38.8-31.4,52.7L104.6,248z
		 M99.8,337.7l-5.7,5.7v-26.2l5.7-6.8V337.7z M329.4,317.1v26.2l-5.7-5.7v-27.4L329.4,317.1z M116.6,241.1c0.8,0,1.5,0.2,2.3,0.6
		c0.6-5.9,1.6-11.7,3.1-16.8c6-21,33.6-23.2,33.8-23.2l0.1,0l111.8,0c0.3,0,27.8,2.2,33.8,23.2c1.5,5.1,2.5,10.8,3.1,16.8
		c0.8-0.4,1.5-0.6,2.3-0.6c0.8,0,1.6,0.3,2.4,0.8c1.4,0.9,13.7,9.5,14.5,13.3c0.8,3.7,0,19.5,0,20.1l-0.1,1.1l-1-0.3
		c-0.1,0-10.3-3.5-19.1-4.9c-1.6,9.1-4.6,17.1-9.2,22.5c-12,14.3-15.2,14.8-29.9,15.2c-4.2,0.1-11,0.2-20.1,0.2c0,0,0,0,0,0
		c-15.5,0-32.6-0.2-32.8-0.2c-0.2,0-17.3,0.2-32.7,0.2c-9.1,0-15.9-0.1-20.1-0.2c-14.7-0.4-17.9-0.9-29.9-15.2
		c-4.5-5.4-7.5-13.4-9.2-22.5c-8.8,1.4-18.9,4.9-19.1,4.9l-1,0.3l-0.1-1.1c0-0.7-0.8-16.4,0-20.1c0.8-3.9,13.1-12.4,14.5-13.3
		C115,241.4,115.8,241.1,116.6,241.1z"/>
	<path fill="#ED1C24" d="M101.3,274.2c2.8-0.9,10.9-3.5,18.3-4.6c-1.4-8.3-1.6-17.4-0.9-26.1c-0.8-0.4-1.5-0.7-2.1-0.7
		c-0.5,0-1,0.2-1.4,0.5c-5.1,3.5-13.3,9.9-13.8,12.3C100.7,258.5,101.2,270.6,101.3,274.2z"/>
	<path fill="#ED1C24" d="M126.8,269c8.6,0.2,24.5,0.2,26.9,0.2l12.8-11.4c-6.5-0.7-28.1-3-35.4-6.2c-3.6-1.5-6.4-3.8-8.7-5.5
		c-0.7-0.6-1.4-1.1-2.1-1.6c-0.6,8.3-0.4,17,0.9,24.9C123.2,269.1,125.1,268.9,126.8,269z"/>
	<path fill="#231F20" d="M252.2,345.6h52c-0.2-1-0.5-2.1-0.7-3.2h-51.2V345.6z"/>
	<path fill="#231F20" d="M103.3,247c0.3-0.6,0.8-1.6,1.4-3c-6.8-0.4-16.2-0.6-19.7,0.3l10.4,10.2C98.6,251.1,102.5,247.7,103.3,247z
		"/>
	<path fill="#231F20" d="M293.1,325.3h-41v15.5H303C301.1,334.2,298,327.4,293.1,325.3z"/>
	<path fill="#ED1C24" d="M322.2,255.6c-0.5-2.4-8.8-8.8-13.8-12.3c-0.5-0.3-0.9-0.5-1.4-0.5c-0.6,0-1.3,0.3-2.1,0.7
		c0.7,8.7,0.5,17.8-0.9,26.1c7.3,1.2,15.5,3.7,18.3,4.6C322.4,270.6,322.8,258.5,322.2,255.6z"/>
	<polygon fill="#231F20" points="250.6,347.6 250.6,325.3 211.8,325.3 172.9,325.3 172.9,347.6 211.8,347.6 	"/>
	<path fill="#231F20" d="M331.9,366.2c-2,1-12,1.6-26,2.1v22.4c0,3.6,2.9,6.6,6.6,6.6h16.9c3.6,0,6.6-2.9,6.6-6.6v-31.9
		C334.9,362.6,333.6,365.4,331.9,366.2z"/>
	<polygon fill="#231F20" points="327.7,317.7 325.3,314.8 325.3,337 327.7,339.5 	"/>
	<path fill="#231F20" d="M331.5,259.5c0.2,0.4,0.3,0.9,0.4,1.4c1.5,0.1,5.5,0.2,7.2,0c2.3-0.3,9.6-4.4,9.3-6.3
		c-0.2-2.1-5.1-7.3-8.5-9.6l-10.9,10.8C330.1,257.1,331,258.4,331.5,259.5z"/>
	<polygon fill="#231F20" points="98.2,314.8 95.8,317.7 95.8,339.5 98.2,337 	"/>
	<path fill="#231F20" d="M328,254.6l10.4-10.2c-3.5-0.9-12.9-0.7-19.7-0.3c0.7,1.3,1.1,2.4,1.4,3C321,247.7,324.9,251.1,328,254.6z"
		/>
	<path fill="#231F20" d="M84.4,260.9c1.8,0.2,5.7,0.1,7.2,0c0.1-0.5,0.3-1,0.4-1.4c0.4-1.1,1.3-2.4,2.4-3.7l-10.9-10.8
		c-3.4,2.3-8.3,7.5-8.5,9.6C74.8,256.6,82.1,260.6,84.4,260.9z"/>
	<path fill="#231F20" d="M781.8,356.3c-2.6,0-4.8,2.1-4.8,4.8c0,2.6,2.1,4.8,4.8,4.8c2.6,0,4.8-2.1,4.8-4.8
		C786.6,358.5,784.4,356.3,781.8,356.3z"/>
	<path fill="#231F20" d="M958,356.3c-2.6,0-4.8,2.1-4.8,4.8c0,2.6,2.1,4.8,4.8,4.8c2.6,0,4.8-2.1,4.8-4.8
		C962.8,358.5,960.6,356.3,958,356.3z"/>
	<polygon fill="#231F20" points="1146.6,663.4 1146.6,681.4 1188.3,681.4 1229.9,681.4 1229.9,663.4 1188.3,663.4 	"/>
	<path fill="#231F20" d="M943.7,356.3c-2.6,0-4.8,2.1-4.8,4.8c0,2.6,2.1,4.8,4.8,4.8s4.8-2.1,4.8-4.8
		C948.5,358.5,946.4,356.3,943.7,356.3z"/>
	<path fill="#231F20" d="M971.4,356.8c0.3-2.2,0-3.9-0.8-5.1c-0.8-1.1-1.9-1.3-2.1-1.3H862.8h-0.2H757.1c-0.2,0-1.3,0.2-2.1,1.3
		c-0.9,1.1-1.2,2.8-0.8,5.1c0.7,5.3,1.7,9.4,2,10.8h213.2C969.7,366.2,970.6,362.2,971.4,356.8z M767.5,367.5
		c-3.5,0-6.4-2.9-6.4-6.4c0-3.5,2.9-6.4,6.4-6.4s6.4,2.9,6.4,6.4C773.9,364.6,771.1,367.5,767.5,367.5z M781.8,367.5
		c-3.5,0-6.4-2.9-6.4-6.4c0-3.5,2.9-6.4,6.4-6.4c3.5,0,6.4,2.9,6.4,6.4C788.2,364.6,785.3,367.5,781.8,367.5z M943.7,367.5
		c-3.5,0-6.4-2.9-6.4-6.4c0-3.5,2.9-6.4,6.4-6.4s6.4,2.9,6.4,6.4C950.1,364.6,947.3,367.5,943.7,367.5z M958,367.5
		c-3.5,0-6.4-2.9-6.4-6.4c0-3.5,2.9-6.4,6.4-6.4s6.4,2.9,6.4,6.4C964.4,364.6,961.5,367.5,958,367.5z"/>
	<path fill="#231F20" d="M992.4,369.3h-35v20.2c0,4.3,3.5,7.8,7.8,7.8h26.2c4.3,0,7.8-3.5,7.8-7.8V343c-1.3,10-3.4,19.5-6.6,25.9
		L992.4,369.3z"/>
	<polygon fill="#231F20" points="977.9,336 980.2,333.5 950.4,333.5 950.9,333.9 949.4,336 	"/>
	<polygon fill="#231F20" points="775.1,333.5 745.3,333.5 747.6,336 776.2,336 774.6,333.9 	"/>
	<path fill="#231F20" d="M767.5,356.3c-2.6,0-4.8,2.1-4.8,4.8c0,2.6,2.1,4.8,4.8,4.8c2.6,0,4.8-2.1,4.8-4.8
		C772.3,358.5,770.2,356.3,767.5,356.3z"/>
	<path fill="#231F20" d="M989.4,261.5c2-2.8,3.6-5.7-0.3-9.9c-3.4-3.6-9.3-4.5-12-4.7c1,1.8,1.8,3,2.2,3.3
		C981.4,252.4,987.4,259.2,989.4,261.5z"/>
	<path fill="#231F20" d="M994.9,636.8c-1.1-1.5-2-2.8-2.4-3.9c-0.6-1.3-0.8-3.7-1.1-6.7c-0.4-3.9-0.9-8.7-2.3-12
		c-2.4-5.6-20.6-24.9-20.7-25l-0.1-0.1c-8.3-10.9-31-39.5-36-41.3c-5-1.8-47.6-2.9-69.5-3.2c-21.9,0.3-64.5,1.4-69.5,3.2
		c-5.1,1.8-27.7,30.5-36.1,41.3l-0.1,0.1c-0.2,0.2-18.3,19.5-20.7,25c-1.4,3.3-1.9,8.1-2.3,12c-0.3,3-0.5,5.4-1.1,6.7
		c-0.5,1.1-1.4,2.4-2.4,3.9c-1.8,2.6-4,5.8-4.5,8.6c-0.3,1.7-0.2,8.3,0.3,16.8h136.3h136.3c0.5-8.4,0.5-15.1,0.3-16.8
		C998.9,642.6,996.7,639.4,994.9,636.8z M990,644.4c-0.4,1.3-1.1,2.1-2,2.3c-4.4,1.3-47.7,1.8-52.5,1.8l-6.8,8.1h-66h-66l-6.8-8.1
		c-4.8,0-48-0.5-52.5-1.8c-0.9-0.3-1.5-1-2-2.3c-2.2-6.4,0.9-26.2,4.2-30.8c3.5-4.9,12.4-9.1,13.9-9.7l13.5-16.1c-1.7,0-2.7,0-2.8,0
		l-1.6,0l0.9-1.3c0.9-1.3,22.8-32.9,30.1-36c7.2-3.1,66.5-4.4,69.1-4.5l0,0.8l0-0.8c2.5,0.1,61.9,1.4,69.1,4.5
		c7.2,3.1,29.2,34.7,30.1,36l0.9,1.3l-1.6,0c-0.1,0-1.1,0-2.8,0l13.5,16.1c1.4,0.6,10.4,4.8,13.9,9.7C989,618.2,992.2,638,990,644.4
		z"/>
	<path fill="#ED1C24" d="M971.6,605.6l-26.5,31.6h44c-0.2-8.1-2.4-19.4-4.7-22.6C981.5,610.4,973.8,606.6,971.6,605.6z"/>
	<path fill="#231F20" d="M936.9,646.9c17-0.2,47.2-0.7,50.6-1.7c0.3-0.1,0.6-0.6,0.9-1.3c0.4-1.2,0.6-3,0.7-5.1h-45.4L936.9,646.9z"
		/>
	<path fill="#231F20" d="M1301.7,597.5c-1.3-1.6-2.4-2.9-2.9-3.8c-1.9-2.8-6-13.6-10.3-25c-1.7-4.5-3.5-9.2-5-13
		c-5-12.6-9.5-16.8-16.8-20.6c-5.7-3-53.8-5.4-78.4-6.3c-24.7,0.9-72.7,3.3-78.4,6.3c-7.3,3.8-11.8,8-16.8,20.6
		c-1.5,3.8-3.3,8.5-5,13c-4.3,11.4-8.4,22.2-10.3,25c-0.6,0.8-1.6,2.1-2.9,3.8c-4.9,6-13.9,17.1-19,30.3
		c-6.4,16.8-4.1,56.3-2.7,61.8c1.3,5.3,9,20.3,10.4,23h37.2c-0.9-1.5-1.4-3.3-1.4-5.2c0-5.7,4.6-10.4,10.4-10.4
		c5.7,0,10.4,4.6,10.4,10.4c0,0.7-0.1,1.4-0.2,2.1h68.4h68.4c-0.1-0.7-0.2-1.4-0.2-2.1c0-5.7,4.6-10.4,10.4-10.4
		c5.7,0,10.4,4.6,10.4,10.4c0,1.9-0.5,3.7-1.4,5.2h37.2c1.4-2.8,9.1-17.7,10.4-23c1.4-5.5,3.7-44.9-2.7-61.8
		C1315.6,614.6,1306.6,603.4,1301.7,597.5z M1084.9,591.6c0.2-0.9,4.9-22.9,7.3-30c2.4-6.8,6.6-13.7,21.1-18.4
		c13.7-4.5,72.4-4.4,74.9-4.4c2.5,0,61.2-0.1,74.9,4.4c14.5,4.7,18.7,11.7,21.1,18.4c2.5,7.1,7.1,29,7.3,30l0.2,1h-103.6h-103.6
		L1084.9,591.6z M1068,611.9c2.3-10.6,9.9-13.5,10.2-13.7l0.1,0c0.3-0.1,8.5-2.1,16.6,1.7c8.4,3.9,9,8.4,8.4,12.3
		c-0.2,1.1-1,3.6-2,6.8c-2.2,6.6-5.9,17.7-4.3,20.4c2.2,3.8,11.3,9.6,12.7,10.5h78.6h78.6c1.4-0.9,10.5-6.7,12.7-10.5
		c1.6-2.8-2.1-13.8-4.3-20.4c-1-3.2-1.9-5.7-2-6.8c-0.5-3.9,0-8.4,8.4-12.3c8.1-3.8,16.3-1.8,16.6-1.7l0.1,0
		c0.3,0.1,7.9,3,10.2,13.7c0.2,0.9,4.6,21.5,2.5,24.3c-1.2,1.6-5,1.8-10.2,1.9c-0.6,0-1.2,0-1.7,0c-3.3,0.1-14.3,0-17.6,0
		c-0.1,0.8-0.2,1.5-0.5,2.1c-2.6,4.5-13,11-13.5,11.2l-0.2,0.1h-79h-79l-0.2-0.1c-0.4-0.3-10.9-6.8-13.5-11.2
		c-0.3-0.5-0.5-1.2-0.5-2.1c-3.2,0-14.2,0.1-17.6,0c-0.5,0-1.1,0-1.7,0c-5.2-0.1-9-0.3-10.2-1.9
		C1063.4,633.4,1067.8,612.8,1068,611.9z M1286.8,692h-98.6h-98.6v-1.6h98.6h98.6V692z M1231.5,663.4v19.7h-43.2H1145v-19.7h-29.8
		l16,18.3l-1.2,1.1l-18.3-21h33.3h43.2h43.2h33.3l-18.3,21l-1.2-1.1l16-18.3H1231.5z M1308.2,656c-2.8,1.1-41.9,1.3-74.9,1.3
		c-21.5,0-40.4-0.1-45.1-0.1c-4.7,0-23.6,0.1-45.1,0.1c-33,0-72.1-0.2-74.9-1.3c-4.9-1.9-9.9-12.7-10.1-13.2l1.5-0.7
		c1.3,3,5.6,11,9.2,12.4c3.3,1.3,73.2,1.4,119.4,1.1l0,0.8l0-0.8c46.2,0.3,116,0.2,119.4-1.1c3.6-1.4,7.8-9.4,9.2-12.4l1.5,0.7
		C1318.1,643.2,1313.1,654,1308.2,656z"/>
	<path fill="#231F20" d="M746.3,250.2c0.3-0.3,1.1-1.5,2.2-3.3c-2.7,0.2-8.7,1-12,4.7c-3.9,4.2-2.3,7.2-0.3,9.9
		C738.1,259.2,744.1,252.4,746.3,250.2z"/>
	<path fill="#231F20" d="M1314,714.2h-25.3v17c0,6.8,5.6,12.4,12.4,12.4h10.5c6.8,0,12.4-5.6,12.4-12.4v-38
		c-2.8,7.4-9.4,20-9.7,20.6L1314,714.2z"/>
	<path fill="#231F20" d="M1109.7,698.6c-4.8,0-8.7,3.9-8.7,8.7s3.9,8.7,8.7,8.7c4.8,0,8.7-3.9,8.7-8.7S1114.5,698.6,1109.7,698.6z"
		/>
	<path fill="#231F20" d="M1062.3,713.7c-0.3-0.6-6.9-13.2-9.7-20.6v38c0,6.8,5.6,12.4,12.4,12.4h10.5c6.8,0,12.4-5.6,12.4-12.4v-17
		h-25.3L1062.3,713.7z"/>
	<path fill="#231F20" d="M988.9,279.4l-0.2-0.2v-16.1c-1.3-1.5-8.2-9.4-10.6-11.7c-1-1-4-6.3-9.1-15.5c-7.3-13-18.3-32.7-22-35.3
		c-4.5-3.3-57-5.9-84.1-6.8l-0.1,0l0,0c-27.1,0.9-79.6,3.5-84.1,6.8c-3.7,2.7-14.7,22.3-22,35.3c-5.2,9.2-8.2,14.5-9.1,15.5
		c-2.4,2.4-9.3,10.3-10.6,11.7v16.1l-0.2,0.2c-0.1,0.1-9.4,10.2-10.1,15.2c-0.4,2.9-0.8,14.6-0.3,28.4h0.1v1.2
		c0.7,15.5,2.8,33.2,7.8,43.5h20.3c-0.4-1.7-1.2-5.6-1.9-10.6c-0.4-2.7,0-4.8,1.2-6.3c1.3-1.7,3.2-1.9,3.2-1.9l0.1,0h105.6h0.2
		h105.6l0,0c0.1,0,1.9,0.2,3.2,1.9c1.2,1.5,1.6,3.6,1.2,6.3c-0.7,5-1.5,8.9-1.9,10.6h20.3c5-10.3,7.1-28,7.8-43.5v-1.2h0.1
		c0.6-13.7,0.1-25.5-0.3-28.4C998.3,289.6,989,279.5,988.9,279.4z M978.6,337.6h-32.5l3.1-4.1h-86.4h-0.2h-86.4l3.1,4.1h-32.5
		l-5.4-5.7h121.1h0.2H984L978.6,337.6z M986,285.4c-0.9,1.7-4.4,2.8-10.5,3.4c-4.6,0.4-14.9,0.9-25.6,1.3l-1.4,5.1
		c-0.1,0.2-4.9,14.2-19.9,16.7c-9,1.5-31.6,1.8-48.9,1.8c0,0,0,0,0,0c-9.2,0-16.1-0.1-16.9-0.1c-0.7,0-7.6,0.1-16.9,0.1
		c-17.3,0-39.9-0.3-48.9-1.8c-15-2.5-19.8-16.5-19.9-16.6l-1.4-5.1c-10.7-0.4-21.1-0.9-25.6-1.3c-6.1-0.6-9.6-1.7-10.5-3.4
		c-0.3-0.5-0.3-1-0.2-1.3V273c0-3.2,0-7.6,3-10.2c2.6-2.3,19.5-5.2,24-5.9l-1.8-6.3l-5.2-8.9l17.9-33.6l0.3-0.1
		c15.9-6.1,67.2-6.5,82.5-6.5c1.5,0,2.4,0,2.7,0c0.2,0,1.2,0,2.7,0c15.3,0,66.6,0.5,82.5,6.5l0.3,0.1l0.1,0.3l17.8,33.3l-5.2,8.9
		l-1.8,6.3c4.5,0.7,21.4,3.6,24,5.9c3,2.6,3,7,3,10.2v11.2C986.2,284.4,986.3,284.9,986,285.4z"/>
	<path fill="#ED1C24" d="M1299,636.5c0.5,0,1.1,0,1.7,0c3-0.1,8.1-0.2,9-1.3c0.7-1,0-9.3-2.2-20.1h-31.9c0.3,1,0.7,2.1,1.1,3.3
		c2.4,7.3,4.5,13.8,4.7,18.1C1284.7,636.5,1295.8,636.6,1299,636.5z"/>
	<path fill="#231F20" d="M1307,612.2c-2.1-9.5-8.5-12.2-9.2-12.5c-0.6-0.1-8.2-1.9-15.5,1.6c-7.4,3.5-8,7.2-7.5,10.6
		c0,0.3,0.2,0.9,0.4,1.6h32C1307.2,613.1,1307.1,612.7,1307,612.2z"/>
	<path fill="#231F20" d="M1122.9,547.5h65.3h65.3l3.1,3.7h18.7c-3-2.5-7-4.6-12.8-6.5c-13.5-4.4-73.8-4.3-74.4-4.3l0-0.8l0,0.8
		c-0.6,0-60.9-0.1-74.4,4.3c-5.7,1.9-9.8,4-12.8,6.5h18.7L1122.9,547.5z"/>
	<path fill="#231F20" d="M1266.8,698.6c-4.8,0-8.7,3.9-8.7,8.7s3.9,8.7,8.7,8.7c4.8,0,8.7-3.9,8.7-8.7S1271.7,698.6,1266.8,698.6z"
		/>
	<path fill="#231F20" d="M956.3,587.8c-18.1-0.3-80.1-1.4-93.6-1.4c-13.5,0-75.5,1.1-93.6,1.4l-14,16.8l42.3,50.4h65.2H928
		l42.3-50.4L956.3,587.8z M920.1,614.8c-2.2,7-19.9,32.3-20.6,33.4l-0.2,0.3h-36.4h-36.4l-0.2-0.3c-0.8-1.1-18.5-26.4-20.6-33.4
		c-0.6-2-0.5-3.9,0.4-5.6c1.9-3.4,6.4-4.7,6.5-4.7l0.1,0h50.2H913l0.1,0c0.2,0.1,4.7,1.3,6.5,4.7
		C920.5,610.9,920.7,612.8,920.1,614.8z"/>
	<path fill="#ED1C24" d="M927.8,271.1c-5.2,3.2-8.1,14.8-8.9,18.3c3.7-0.1,16.8-0.5,29.8-0.9l6.3-22.5
		C950.3,266.3,933.2,267.8,927.8,271.1z"/>
	<polygon fill="#231F20" points="862.7,276.1 837.6,276.1 837.6,301.7 862.7,301.7 862.8,301.7 888,301.7 888,276.1 862.8,276.1 	
		"/>
	<path fill="#ED1C24" d="M797.8,271.1c-5.4-3.3-22.6-4.8-27.1-5.1l6.3,22.5c12.9,0.5,26.1,0.8,29.8,0.9
		C805.9,286,803,274.3,797.8,271.1z"/>
	<path fill="#231F20" d="M1101.7,611.9c0.5-3.5-0.1-7.1-7.5-10.6c-7.3-3.4-14.9-1.7-15.5-1.6c-0.6,0.2-7.1,3-9.2,12.5
		c-0.1,0.4-0.2,0.9-0.3,1.3h32C1101.5,612.8,1101.7,612.3,1101.7,611.9z"/>
	<path fill="#ED1C24" d="M1075.8,636.5c0.6,0,1.2,0,1.7,0c3.3,0.1,14.3,0,17.5,0c0.2-4.2,2.3-10.8,4.7-18.1c0.4-1.2,0.8-2.3,1.1-3.3
		H1069c-2.2,10.8-2.9,19-2.2,20.1C1067.6,636.3,1072.7,636.4,1075.8,636.5z"/>
	<path fill="#ED1C24" d="M743.5,264c-2.5,2.2-2.5,6-2.5,9v11.5l0,0.1c0.1,0.2,0.9,1.8,9.3,2.6c4.5,0.4,14.5,0.9,25,1.3l-8.4-30
		C758.2,259.8,745.3,262.4,743.5,264z"/>
	<path fill="#ED1C24" d="M984.6,273c0-3,0-6.8-2.5-9c-1.8-1.6-14.7-4.1-23.4-5.5l-8.4,30c10.5-0.4,20.5-0.8,25-1.3
		c7.9-0.8,9.1-2.3,9.2-2.5c0,0,0,0,0.1,0c0,0,0,0,0,0l-0.1-0.2V273z"/>
	<path fill="#231F20" d="M916.9,291.1l0.2-1c0.1-0.7,3.1-16.3,9.9-20.4c6.1-3.7,24.9-5.2,28.4-5.4l4-14.4l4.9-8.4l-2.9-5.5
		c-2,2.5-5.8,2.7-5.9,2.7l-92.6-0.6l-92.6,0.6c-0.2,0-4-0.3-6-2.7l-2.9,5.5l4.9,8.5l4,14.3c3.6,0.2,22.4,1.7,28.4,5.4
		c6.7,4.1,9.7,19.7,9.9,20.4l0.2,1l-1,0c-0.3,0-15.3-0.4-30.3-0.9l1.3,4.6c0,0.1,4.6,13.2,18.6,15.5c8.9,1.5,31.4,1.8,48.7,1.8
		c9.2,0,16.1-0.1,16.9-0.1c0.8,0,7.7,0.1,16.9,0.1c17.3,0,39.7-0.3,48.7-1.8c14-2.3,18.5-15.4,18.6-15.6l1.3-4.6
		c-15,0.5-30,0.9-30.3,0.9L916.9,291.1z M907.1,282.4l-0.3-1.6c3-0.5,6-3.1,7.7-4.8h-24.9v27.3h-26.7h-0.2h-26.7v-27.3h-24.9
		c1.6,1.6,4.6,4.2,7.7,4.8l-0.3,1.6c-5-0.9-9.7-6.4-9.9-6.6l-1.1-1.3h55.2h0.2H918l-1.1,1.3C916.7,276,912.1,281.5,907.1,282.4z"/>
	<path fill="#231F20" d="M732.9,368.8c-3.2-6.4-5.3-15.8-6.6-25.9v46.5c0,4.3,3.5,7.8,7.8,7.8h26.2c4.3,0,7.8-3.5,7.8-7.8v-20.2h-35
		L732.9,368.8z"/>
	<path fill="#231F20" d="M666.2,279.4l0-0.1l0-0.1c0-2.8-0.1-9.9-1-13.1c0.5,9.9,0.2,27.1-7.9,31.6c-7.2,4-34.7,4.2-38.9,4.2
		c-0.3,0-0.4,0-0.5,0l-1.8,0l1.2-1.3c8.5-9.7,27.2-45.9,27.4-46.3l0.2-0.4h7.7c-1.2-1.1-2.4-2.2-3.4-3.3c-1.7-1.9-6.1-8.1-11.8-15.9
		c-10.8-15.2-27.2-38.1-31.3-39.7c-0.4-0.2-1.1-0.3-2.1-0.5c4,4.5,15.3,17.3,20.7,26.4c6.7,11.3,10.7,18.2,10.7,18.2
		c0.2,0.4,5.1,9.9-7.8,28.9l-1.6,2.3c-12,17.7-24.5,36.1-47.2,38.3c-18.9,1.9-34.7,2.1-39.9,2.1c-1.1,0-1.7,0-1.8,0
		c-0.1,0-0.7,0-1.8,0c-5.2,0-21-0.2-39.9-2.1c-22.7-2.3-35.1-20.6-47.2-38.3l-1.6-2.3c-12.9-19-8-28.5-7.8-28.9c0,0,4.1-7,10.8-18.3
		c5.4-9.2,16.6-22,20.7-26.4c-1,0.2-1.7,0.3-2.1,0.5c-4.1,1.6-20.4,24.5-31.3,39.7c-5.6,7.9-10.1,14.1-11.8,15.9
		c-1,1.1-2.1,2.2-3.4,3.3h7.7l0.2,0.4c0.2,0.4,18.8,36.5,27.4,46.3l1.2,1.3l-1.8,0c-0.1,0-0.2,0-0.5,0c-4.2,0-31.8-0.2-38.9-4.2
		c-8-4.5-8.4-21.8-7.9-31.6c-0.9,3.2-1,10.3-1,13.1l0,0.1l0,0.1c-0.1,0.2-7.4,24.2-7.8,40.9c-0.4,17.2,5.8,43.4,9.8,46.1
		c0.9,0.6,6.7,1,15.8,1.4l5.3-12.2h31.4v13.1c21.6,0.3,47.1,0.4,70.6,0.4c2.4,0,3.8,0,3.8,0c0,0,1.4,0,3.8,0c23.5,0,49-0.1,70.6-0.4
		v-13.1h31.4l5.3,12.2c9.1-0.4,14.9-0.8,15.8-1.4c4-2.7,10.2-28.9,9.8-46.1C673.6,303.6,666.3,279.6,666.2,279.4z M598.3,362.9h-1.6
		v-4h-30.4l-5.5,4h-23.4h-23.4l-5.5-4h-30.4v4h-1.6v-5.6h61h61V362.9z M652,347.4h-41v-2.5h-73.8h-73.8v2.5h-41v-6.7h41v2.5h73.8
		H611v-2.5h41V347.4z M671.2,321.9H537.3H403.4v-1.6h133.9h133.9V321.9z"/>
	<polygon fill="#231F20" points="511,359 514.3,361.4 537.3,361.4 560.2,361.4 563.5,359 537.3,359 	"/>
	<path fill="#231F20" d="M956.3,708.3c9.5,0,17,3.6,17.5,8.2c3.7,0.2,14.6-0.3,19-10.5c1.2-2.7,2.2-6.9,3-11.9H862.8H729.7
		c0.9,5,1.9,9.2,3,11.9c4.3,10.1,15.3,10.6,19,10.5c0.5-4.6,8-8.2,17.5-8.2c8.9,0,16.1,3.2,17.3,7.4h76.2H939
		C940.2,711.5,947.4,708.3,956.3,708.3z"/>
	<rect x="612.7" y="342.3" fill="#231F20" width="37.7" height="3.5"/>
	<path fill="#231F20" d="M769.2,709.9c-8.6,0-15.9,3.2-15.9,7c0,3.8,7.3,7,15.9,7s15.9-3.2,15.9-7
		C785.1,713.1,777.8,709.9,769.2,709.9z"/>
	<path fill="#231F20" d="M751.9,718.1c-0.3,0-0.6,0-0.9,0c-4.6,0-15.3-1.2-19.7-11.5c-1.3-3.1-2.4-7.8-3.3-13.4v37.8
		c0,6.9,5.6,12.4,12.4,12.4h14.3c6.9,0,12.4-5.6,12.4-12.4v-5.5C759.1,725.1,752.9,722.1,751.9,718.1z"/>
	<rect x="424.1" y="342.3" fill="#231F20" width="37.7" height="3.5"/>
	<path fill="#ED1C24" d="M418,296.3c6.2,3.5,30.2,3.9,36.9,4c-8.6-10.8-24.1-40.6-26.2-44.8h-8.5c-1.2,1-2.4,2.1-3.6,3
		c-2.1,1.8-4.1,3.4-5.5,4.8C410.6,270.2,409.7,291.6,418,296.3z"/>
	<path fill="#231F20" d="M403.3,353.7v31.9c0,6.4,5.2,11.6,11.6,11.6H436c6.4,0,11.6-5.2,11.6-11.6v-15.5
		c-20.5-0.4-36.4-1.2-38.1-2.3C407.4,366.4,405.2,360.9,403.3,353.7z"/>
	<path fill="#231F20" d="M441.7,237.8c-0.8,1.3-1.2,2-1.2,2c0,0.1-4.6,9.1,7.7,27.2l1.6,2.3c12.4,18.2,24.1,35.4,46,37.6
		c22.9,2.3,41.3,2,41.5,2l0,0.8l0-0.8c0.2,0,18.5,0.2,41.5-2c21.9-2.2,33.6-19.4,46-37.6l1.6-2.3c12.3-18,7.8-27.1,7.7-27.2
		c0,0-0.4-0.7-1.2-2c-5.8-0.2-68.6-2.4-95.6-2.4C510.3,235.3,447.5,237.6,441.7,237.8z M572.5,292.2h-70.4v-21.3h70.4V292.2z
		 M600.3,264.6c0,0.2,0.6,21.1-18.3,28.8l-0.6-1.5c15.8-6.5,17.2-22.7,17.3-26.5h-61.4h-61.4c0.1,3.7,1.5,20,17.3,26.5l-0.6,1.5
		c-18.9-7.7-18.3-28.6-18.3-28.8l0-0.8h63h63L600.3,264.6z"/>
	<path fill="#231F20" d="M665.1,367.8c-1.7,1.2-17.6,1.9-38.1,2.3v15.5c0,6.4,5.2,11.6,11.6,11.6h21.1c6.4,0,11.6-5.2,11.6-11.6
		v-31.9C669.3,360.9,667.1,366.4,665.1,367.8z"/>
	<path fill="#231F20" d="M427.9,367.9c8.8,0.3,20.4,0.6,33.4,0.8v-11.4h-28.8L427.9,367.9z"/>
	<path fill="#231F20" d="M642.1,357.3h-28.8v11.4c13-0.2,24.6-0.5,33.4-0.8L642.1,357.3z"/>
	<g>
		<linearGradient id="SVGID_1_" gradientUnits="userSpaceOnUse" x1="211.7504" y1="454.7059" x2="211.7504" y2="368.3996">
			<stop  offset="0" style="stop-color:#FFFFFF"/>
			<stop  offset="1" style="stop-color:#231F20"/>
		</linearGradient>
		<path fill="url(#SVGID_1_)" d="M117.8,439.2c0,0.1,0.3,3.3,1.1,7.6h52.5v-1.2h80.8v1.2h52.5c0.8-4.3,1.1-7.5,1.1-7.6l0-0.4
			l15.1-10c-14.1-0.9-41.6-1.3-79.6-1.3c-16.8,0-29.4,0.1-29.5,0.1c-0.1,0-12.7-0.1-29.5-0.1c-38,0-65.5,0.5-79.6,1.3l15.1,10
			L117.8,439.2z"/>
		<linearGradient id="SVGID_2_" gradientUnits="userSpaceOnUse" x1="102.5132" y1="454.7059" x2="102.5132" y2="368.3996">
			<stop  offset="0" style="stop-color:#FFFFFF"/>
			<stop  offset="1" style="stop-color:#231F20"/>
		</linearGradient>
		<path fill="url(#SVGID_2_)" d="M87.5,436.1v-31.9c0-3.6,2.9-6.6,6.6-6.6H111c3.6,0,6.6,2.9,6.6,6.6v22.4c-13.9,0.4-24,1.1-26,2.1
			C89.9,429.4,88.6,432.3,87.5,436.1z"/>
		<linearGradient id="SVGID_3_" gradientUnits="userSpaceOnUse" x1="1188.2711" y1="454.7059" x2="1188.2711" y2="368.3996">
			<stop  offset="0" style="stop-color:#FFFFFF"/>
			<stop  offset="1" style="stop-color:#231F20"/>
		</linearGradient>
		<path fill="url(#SVGID_3_)" d="M1098.2,446.8c-3.2-1.3-5.4-4.4-5.4-8c0-4.8,3.9-8.6,8.6-8.6s8.6,3.9,8.6,8.6c0,3.6-2.2,6.7-5.4,8
			h167.3c-3.2-1.3-5.4-4.4-5.4-8c0-4.8,3.9-8.6,8.6-8.6s8.6,3.9,8.6,8.6c0,3.6-2.2,6.7-5.4,8h45.6c-1.6-5-5.5-15.1-11.8-17.6
			c-0.7-0.3-2.1-0.5-4.2-0.8c-5.4,4.8-21.9,7.4-22.6,7.5l-0.2-1.6c0.2,0,14.4-2.2,20.5-6.1c-20.4-1.9-80.3-2.6-117.1-2.7l-0.3,0
			l-0.3,0c-36.7,0.1-96.7,0.8-117.1,2.7c6.1,3.9,20.3,6.1,20.5,6.1l-0.2,1.6c-0.7-0.1-17.2-2.6-22.6-7.5c-2,0.2-3.5,0.5-4.2,0.8
			c-6.3,2.5-10.2,12.5-11.8,17.6H1098.2z M1111.9,435.6c9.4,0.3,71.6,0.8,76.4,0.8c4.7,0,67-0.5,76.4-0.8l0,1.6
			c-9.3,0.3-69.8,0.8-76.1,0.8v0c0,0-0.1,0-0.3,0c-0.2,0-0.2,0-0.3,0v0c-6.4-0.1-66.9-0.6-76.1-0.8L1111.9,435.6z"/>
		<linearGradient id="SVGID_4_" gradientUnits="userSpaceOnUse" x1="1305.8606" y1="454.7059" x2="1305.8606" y2="368.3996">
			<stop  offset="0" style="stop-color:#FFFFFF"/>
			<stop  offset="1" style="stop-color:#231F20"/>
		</linearGradient>
		<path fill="url(#SVGID_4_)" d="M1312.8,427.7c-2.4-1-12.4-1.7-25.8-2.2v-18.2c0-5.4,4.4-9.7,9.7-9.7h18.4c5.4,0,9.7,4.4,9.7,9.7
			v36.9C1322.8,438.6,1318.9,430.1,1312.8,427.7z"/>
		<linearGradient id="SVGID_5_" gradientUnits="userSpaceOnUse" x1="1070.6808" y1="454.7059" x2="1070.6808" y2="368.3996">
			<stop  offset="0" style="stop-color:#FFFFFF"/>
			<stop  offset="1" style="stop-color:#231F20"/>
		</linearGradient>
		<path fill="url(#SVGID_5_)" d="M1051.7,444.2v-36.9c0-5.4,4.4-9.7,9.7-9.7h18.4c5.4,0,9.7,4.4,9.7,9.7v18.2
			c-13.4,0.5-23.4,1.3-25.8,2.2C1057.7,430.1,1053.7,438.6,1051.7,444.2z"/>
		<linearGradient id="SVGID_6_" gradientUnits="userSpaceOnUse" x1="1275.1058" y1="454.7059" x2="1275.1058" y2="368.3996">
			<stop  offset="0" style="stop-color:#FFFFFF"/>
			<stop  offset="1" style="stop-color:#231F20"/>
		</linearGradient>
		<path fill="url(#SVGID_6_)" d="M1275.1,445.8c-3.9,0-7-3.1-7-7s3.1-7,7-7s7,3.1,7,7S1279,445.8,1275.1,445.8z"/>
		<linearGradient id="SVGID_7_" gradientUnits="userSpaceOnUse" x1="1101.4355" y1="454.7059" x2="1101.4355" y2="368.3996">
			<stop  offset="0" style="stop-color:#FFFFFF"/>
			<stop  offset="1" style="stop-color:#231F20"/>
		</linearGradient>
		<path fill="url(#SVGID_7_)" d="M1101.4,445.8c-3.9,0-7-3.1-7-7s3.1-7,7-7s7,3.1,7,7S1105.3,445.8,1101.4,445.8z"/>
		<linearGradient id="SVGID_8_" gradientUnits="userSpaceOnUse" x1="321.473" y1="454.7059" x2="321.473" y2="368.3996">
			<stop  offset="0" style="stop-color:#FFFFFF"/>
			<stop  offset="1" style="stop-color:#231F20"/>
		</linearGradient>
		<path fill="url(#SVGID_8_)" d="M336.7,446.8c-1.5-9-3.4-15.7-5.4-16.8c-0.8-0.4-3.4-0.8-7.7-1.1l-16.3,10.8c-0.1,1-0.4,3.7-1,7.1
			H336.7z"/>
		<linearGradient id="SVGID_9_" gradientUnits="userSpaceOnUse" x1="102.0277" y1="454.7059" x2="102.0277" y2="368.3996">
			<stop  offset="0" style="stop-color:#FFFFFF"/>
			<stop  offset="1" style="stop-color:#231F20"/>
		</linearGradient>
		<path fill="url(#SVGID_9_)" d="M117.2,446.8c-0.6-3.4-0.9-6.1-1-7.1L100,429c-4.3,0.3-6.9,0.7-7.7,1.1c-2.1,1-4,7.7-5.4,16.8
			H117.2z"/>
		<linearGradient id="SVGID_10_" gradientUnits="userSpaceOnUse" x1="320.9874" y1="454.7059" x2="320.9874" y2="368.3996">
			<stop  offset="0" style="stop-color:#FFFFFF"/>
			<stop  offset="1" style="stop-color:#231F20"/>
		</linearGradient>
		<path fill="url(#SVGID_10_)" d="M331.9,428.6c-2-1-12-1.6-26-2.1v-22.4c0-3.6,2.9-6.6,6.6-6.6h16.9c3.6,0,6.6,2.9,6.6,6.6v31.9
			C334.9,432.3,333.6,429.4,331.9,428.6z"/>
		<linearGradient id="SVGID_11_" gradientUnits="userSpaceOnUse" x1="781.7849" y1="454.7059" x2="781.7849" y2="368.3996">
			<stop  offset="0" style="stop-color:#FFFFFF"/>
			<stop  offset="1" style="stop-color:#231F20"/>
		</linearGradient>
		<path fill="url(#SVGID_11_)" d="M781.8,438.5c-2.6,0-4.8-2.1-4.8-4.8c0-2.6,2.1-4.8,4.8-4.8c2.6,0,4.8,2.1,4.8,4.8
			C786.6,436.4,784.4,438.5,781.8,438.5z"/>
		<linearGradient id="SVGID_12_" gradientUnits="userSpaceOnUse" x1="957.9797" y1="454.7059" x2="957.9797" y2="368.3996">
			<stop  offset="0" style="stop-color:#FFFFFF"/>
			<stop  offset="1" style="stop-color:#231F20"/>
		</linearGradient>
		<path fill="url(#SVGID_12_)" d="M958,438.5c-2.6,0-4.8-2.1-4.8-4.8c0-2.6,2.1-4.8,4.8-4.8c2.6,0,4.8,2.1,4.8,4.8
			C962.8,436.4,960.6,438.5,958,438.5z"/>
		<linearGradient id="SVGID_13_" gradientUnits="userSpaceOnUse" x1="943.7429" y1="454.7059" x2="943.7429" y2="368.3996">
			<stop  offset="0" style="stop-color:#FFFFFF"/>
			<stop  offset="1" style="stop-color:#231F20"/>
		</linearGradient>
		<path fill="url(#SVGID_13_)" d="M943.7,438.5c-2.6,0-4.8-2.1-4.8-4.8c0-2.6,2.1-4.8,4.8-4.8s4.8,2.1,4.8,4.8
			C948.5,436.4,946.4,438.5,943.7,438.5z"/>
		<linearGradient id="SVGID_14_" gradientUnits="userSpaceOnUse" x1="862.764" y1="454.7059" x2="862.764" y2="368.3996">
			<stop  offset="0" style="stop-color:#FFFFFF"/>
			<stop  offset="1" style="stop-color:#231F20"/>
		</linearGradient>
		<path fill="url(#SVGID_14_)" d="M969.4,427.1H756.2c-0.3,1.5-1.2,5.5-2,10.8c-0.3,2.2,0,3.9,0.8,5.1c0.8,1.1,1.9,1.3,2.1,1.3
			h105.5h0.2h105.5c0.2,0,1.3-0.3,2.1-1.3c0.9-1.1,1.2-2.8,0.8-5.1C970.6,432.6,969.7,428.6,969.4,427.1z M773.9,433.7
			c0,3.5-2.9,6.4-6.4,6.4s-6.4-2.9-6.4-6.4s2.9-6.4,6.4-6.4S773.9,430.2,773.9,433.7z M788.2,433.7c0,3.5-2.9,6.4-6.4,6.4
			c-3.5,0-6.4-2.9-6.4-6.4s2.9-6.4,6.4-6.4C785.3,427.3,788.2,430.2,788.2,433.7z M950.1,433.7c0,3.5-2.9,6.4-6.4,6.4
			s-6.4-2.9-6.4-6.4s2.9-6.4,6.4-6.4S950.1,430.2,950.1,433.7z M964.4,433.7c0,3.5-2.9,6.4-6.4,6.4s-6.4-2.9-6.4-6.4
			s2.9-6.4,6.4-6.4S964.4,430.2,964.4,433.7z"/>
		<linearGradient id="SVGID_15_" gradientUnits="userSpaceOnUse" x1="978.297" y1="454.7059" x2="978.297" y2="368.3996">
			<stop  offset="0" style="stop-color:#FFFFFF"/>
			<stop  offset="1" style="stop-color:#231F20"/>
		</linearGradient>
		<path fill="url(#SVGID_15_)" d="M992.6,426c2.7,5.3,4.6,12.7,5.9,20.8h0.7v-41.4c0-4.3-3.5-7.8-7.8-7.8h-26.2
			c-4.3,0-7.8,3.5-7.8,7.8v20.2h35L992.6,426z"/>
		<linearGradient id="SVGID_16_" gradientUnits="userSpaceOnUse" x1="767.5481" y1="454.7059" x2="767.5481" y2="368.3996">
			<stop  offset="0" style="stop-color:#FFFFFF"/>
			<stop  offset="1" style="stop-color:#231F20"/>
		</linearGradient>
		<path fill="url(#SVGID_16_)" d="M767.5,438.5c-2.6,0-4.8-2.1-4.8-4.8c0-2.6,2.1-4.8,4.8-4.8c2.6,0,4.8,2.1,4.8,4.8
			C772.3,436.4,770.2,438.5,767.5,438.5z"/>
		<linearGradient id="SVGID_17_" gradientUnits="userSpaceOnUse" x1="862.7637" y1="454.7059" x2="862.7637" y2="368.3996">
			<stop  offset="0" style="stop-color:#FFFFFF"/>
			<stop  offset="1" style="stop-color:#231F20"/>
		</linearGradient>
		<path fill="url(#SVGID_17_)" d="M996.9,446.8c-1.2-7.6-3-14.5-5.5-19.7H971c0.4,1.7,1.2,5.6,1.9,10.6c0.4,2.7,0,4.8-1.2,6.3
			c-1.3,1.7-3.2,1.9-3.2,1.9l0,0H757.1l-0.1,0c-0.1,0-1.9-0.2-3.2-1.9c-1.2-1.5-1.6-3.6-1.2-6.3c0.7-5,1.5-8.9,1.9-10.6h-20.3
			c-2.5,5.1-4.3,12.1-5.5,19.7H996.9z"/>
		<linearGradient id="SVGID_18_" gradientUnits="userSpaceOnUse" x1="747.2305" y1="454.7059" x2="747.2305" y2="368.3996">
			<stop  offset="0" style="stop-color:#FFFFFF"/>
			<stop  offset="1" style="stop-color:#231F20"/>
		</linearGradient>
		<path fill="url(#SVGID_18_)" d="M727.1,446.8c1.3-8.1,3.2-15.5,5.9-20.8l0.2-0.4h35v-20.2c0-4.3-3.5-7.8-7.8-7.8h-26.2
			c-4.3,0-7.8,3.5-7.8,7.8v41.4H727.1z"/>
		<linearGradient id="SVGID_19_" gradientUnits="userSpaceOnUse" x1="537.2572" y1="454.7059" x2="537.2572" y2="368.3996">
			<stop  offset="0" style="stop-color:#FFFFFF"/>
			<stop  offset="1" style="stop-color:#231F20"/>
		</linearGradient>
		<path fill="url(#SVGID_19_)" d="M670.9,446.8c-2-9.4-4.6-17-6.7-18.4c-0.9-0.6-6.7-1-15.8-1.4l-5.3,12.2h-31.4v-13.1
			c-21.6-0.3-47.1-0.4-70.6-0.4c-2.4,0-3.8,0-3.8,0c0,0-1.4,0-3.8,0c-23.5,0-49,0.1-70.6,0.4v13.1h-31.4l-5.3-12.2
			c-9.1,0.4-14.9,0.8-15.8,1.4c-2.1,1.4-4.7,9-6.7,18.4H670.9z M476.2,431.9h1.6v4h30.4l5.5-4h46.9l5.5,4h30.4v-4h1.6v5.6h-122
			V431.9z"/>
		<linearGradient id="SVGID_20_" gradientUnits="userSpaceOnUse" x1="537.2571" y1="454.7059" x2="537.2571" y2="368.3996">
			<stop  offset="0" style="stop-color:#FFFFFF"/>
			<stop  offset="1" style="stop-color:#231F20"/>
		</linearGradient>
		<polygon fill="url(#SVGID_20_)" points="511,435.8 514.3,433.4 537.3,433.4 560.2,433.4 563.5,435.8 537.3,435.8 		"/>
		<linearGradient id="SVGID_21_" gradientUnits="userSpaceOnUse" x1="425.421" y1="454.7059" x2="425.421" y2="368.3996">
			<stop  offset="0" style="stop-color:#FFFFFF"/>
			<stop  offset="1" style="stop-color:#231F20"/>
		</linearGradient>
		<path fill="url(#SVGID_21_)" d="M403.3,441.1v-31.9c0-6.4,5.2-11.6,11.6-11.6H436c6.4,0,11.6,5.2,11.6,11.6v15.5
			c-20.5,0.4-36.4,1.2-38.1,2.3C407.4,428.4,405.2,433.9,403.3,441.1z"/>
		<linearGradient id="SVGID_22_" gradientUnits="userSpaceOnUse" x1="649.0931" y1="454.7059" x2="649.0931" y2="368.3996">
			<stop  offset="0" style="stop-color:#FFFFFF"/>
			<stop  offset="1" style="stop-color:#231F20"/>
		</linearGradient>
		<path fill="url(#SVGID_22_)" d="M665.1,427c-1.7-1.2-17.6-1.9-38.1-2.3v-15.5c0-6.4,5.2-11.6,11.6-11.6h21.1
			c6.4,0,11.6,5.2,11.6,11.6v31.9C669.3,433.9,667.1,428.4,665.1,427z"/>
		<linearGradient id="SVGID_23_" gradientUnits="userSpaceOnUse" x1="444.5471" y1="454.7059" x2="444.5471" y2="368.3996">
			<stop  offset="0" style="stop-color:#FFFFFF"/>
			<stop  offset="1" style="stop-color:#231F20"/>
		</linearGradient>
		<path fill="url(#SVGID_23_)" d="M427.9,426.9c8.8-0.3,20.4-0.6,33.4-0.8v11.4h-28.8L427.9,426.9z"/>
		<linearGradient id="SVGID_24_" gradientUnits="userSpaceOnUse" x1="629.9669" y1="454.7059" x2="629.9669" y2="368.3996">
			<stop  offset="0" style="stop-color:#FFFFFF"/>
			<stop  offset="1" style="stop-color:#231F20"/>
		</linearGradient>
		<path fill="url(#SVGID_24_)" d="M642.1,437.5h-28.8v-11.4c13,0.2,24.6,0.5,33.4,0.8L642.1,437.5z"/>
	</g>
	<polygon fill="#231F20" points="890.4,643.2 890.4,616.9 862.8,616.9 835.1,616.9 835.1,643.2 862.8,643.2 	"/>
	<path fill="#ED1C24" d="M753.9,605.6c-2.1,1-9.8,4.8-12.8,9c-2.3,3.2-4.5,14.5-4.7,22.6h44L753.9,605.6z"/>
	<path fill="#231F20" d="M974.6,718.1c-0.3,0-0.6,0-0.9,0c-1,3.9-7.2,7-15.2,7.4v5.5c0,6.9,5.6,12.4,12.4,12.4h14.3
		c6.9,0,12.4-5.6,12.4-12.4v-37.8c-0.9,5.6-2,10.3-3.3,13.4C989.9,717,979.2,718.1,974.6,718.1z"/>
	<path fill="#231F20" d="M736.4,638.8c0,2.1,0.2,3.9,0.7,5.1c0.3,0.7,0.6,1.2,0.9,1.3c3.4,1,33.6,1.6,50.6,1.7l-6.8-8.1H736.4z"/>
	<path fill="#231F20" d="M726.5,663.8c0.5,9.1,1.5,19.9,2.9,28.7h133.3h133.3c1.4-8.8,2.4-19.6,2.9-28.7H862.8H726.5z"/>
	<path fill="#231F20" d="M972.2,717c0-3.8-7.3-7-15.9-7c-8.6,0-15.9,3.2-15.9,7c0,3.8,7.3,7,15.9,7C964.9,724,972.2,720.8,972.2,717
		z"/>
	<path fill="#231F20" d="M892,644.9h-29.2h-29.2v-27.9h-25.4c4.1,8.5,17.2,27.2,19.1,30h35.6h35.6c1.9-2.8,15-21.5,19.1-30H892
		V644.9z"/>
	<path fill="#231F20" d="M912.7,606.1h-50h-50c-0.6,0.2-4,1.3-5.5,3.9c-0.7,1.3-0.8,2.7-0.3,4.3c0.1,0.3,0.2,0.6,0.3,0.9h26.2h0.8
		h28.4h28.4h0.8h26.2c0.1-0.3,0.3-0.7,0.3-0.9c0.5-1.6,0.4-3.1-0.3-4.3C916.8,607.4,913.4,606.3,912.7,606.1z"/>
	<g>
		<linearGradient id="SVGID_25_" gradientUnits="userSpaceOnUse" x1="96.8609" y1="797.91" x2="96.8609" y2="704.8055">
			<stop  offset="0" style="stop-color:#FFFFFF"/>
			<stop  offset="1" style="stop-color:#231F20"/>
		</linearGradient>
		<path fill="url(#SVGID_25_)" d="M80,792.5c1.3-4.4,2.9-8.1,4.5-8.2c1.3-0.1,5-0.2,9.6-0.2c5.2,0,11.5,0.1,17.2,0.1
			c1.1,0,2.1,0,3.1,0V756c0-6.7-5.5-12.2-12.2-12.2H91.4c-6.7,0-12.2,5.5-12.2,12.2v36.5H80z"/>
		<linearGradient id="SVGID_26_" gradientUnits="userSpaceOnUse" x1="326.6396" y1="797.91" x2="326.6396" y2="704.8055">
			<stop  offset="0" style="stop-color:#FFFFFF"/>
			<stop  offset="1" style="stop-color:#231F20"/>
		</linearGradient>
		<path fill="url(#SVGID_26_)" d="M329.4,784.1c4.6,0,8.3,0,9.6,0.2c1.6,0.2,3.1,3.8,4.5,8.2h0.8V756c0-6.7-5.5-12.2-12.2-12.2
			h-10.9c-6.7,0-12.2,5.5-12.2,12.2v28.2c1,0,2.1,0,3.1,0C317.8,784.2,324.2,784.1,329.4,784.1z"/>
		<linearGradient id="SVGID_27_" gradientUnits="userSpaceOnUse" x1="211.7572" y1="797.91" x2="211.7572" y2="704.8055">
			<stop  offset="0" style="stop-color:#FFFFFF"/>
			<stop  offset="1" style="stop-color:#231F20"/>
		</linearGradient>
		<path fill="url(#SVGID_27_)" d="M341.8,792.5c-1.2-3.9-2.2-6.4-3-6.6c-2.7-0.3-16.5-0.2-26.6-0.1c-4.3,0-8,0.1-10.4,0.1
			c-7.7,0-11.6,2.4-11.7,2.4l-0.2,0.1H133.8l-0.2,0l-0.2-0.1c0,0-4-2.4-11.7-2.4c-2.3,0-6.1,0-10.4-0.1c-10.1-0.1-24-0.2-26.6,0.1
			c-0.7,0.3-1.8,2.7-3,6.6H341.8z"/>
		<linearGradient id="SVGID_28_" gradientUnits="userSpaceOnUse" x1="443.0881" y1="797.91" x2="443.0881" y2="704.8055">
			<stop  offset="0" style="stop-color:#FFFFFF"/>
			<stop  offset="1" style="stop-color:#231F20"/>
		</linearGradient>
		<path fill="url(#SVGID_28_)" d="M443.1,786.8c-6.3,0-11.7-3.1-11.7-6.7c0-3.6,5.3-6.7,11.7-6.7s11.7,3.1,11.7,6.7
			C454.8,783.8,449.4,786.8,443.1,786.8z"/>
		<linearGradient id="SVGID_29_" gradientUnits="userSpaceOnUse" x1="654.3028" y1="797.91" x2="654.3028" y2="704.8055">
			<stop  offset="0" style="stop-color:#FFFFFF"/>
			<stop  offset="1" style="stop-color:#231F20"/>
		</linearGradient>
		<path fill="url(#SVGID_29_)" d="M657.7,766.3c0.4,0.4,8.6,8.7,13,18.1c1,2.3,1.9,5,2.5,8h0.7L674,756c0-3.2-1.3-6.3-3.5-8.6
			c-2.3-2.3-5.3-3.6-8.6-3.6h-15.1c-6.7,0-12.1,5.4-12.1,12.1v10.1h22.8L657.7,766.3z"/>
		<linearGradient id="SVGID_30_" gradientUnits="userSpaceOnUse" x1="420.2115" y1="797.91" x2="420.2115" y2="704.8055">
			<stop  offset="0" style="stop-color:#FFFFFF"/>
			<stop  offset="1" style="stop-color:#231F20"/>
		</linearGradient>
		<path fill="url(#SVGID_30_)" d="M401.3,792.5c0.7-3,1.5-5.8,2.5-8c4.3-9.4,12.6-17.8,13-18.1l0.2-0.2h22.8V756
			c0-6.7-5.4-12.1-12.1-12.1h-15.1c-3.2,0-6.3,1.3-8.6,3.6c-2.3,2.3-3.5,5.3-3.5,8.6l0.1,36.5H401.3z"/>
		<linearGradient id="SVGID_31_" gradientUnits="userSpaceOnUse" x1="662.9417" y1="797.91" x2="662.9417" y2="704.8055">
			<stop  offset="0" style="stop-color:#FFFFFF"/>
			<stop  offset="1" style="stop-color:#231F20"/>
		</linearGradient>
		<path fill="url(#SVGID_31_)" d="M671.5,792.5c-0.6-2.8-1.4-5.3-2.3-7.4c-3.2-7-8.8-13.5-11.3-16.3c-0.1,3.1-0.5,9.6-1.3,17.2
			c-0.3,2.6-1,4.8-2.2,6.5H671.5z"/>
		<linearGradient id="SVGID_32_" gradientUnits="userSpaceOnUse" x1="411.5726" y1="797.91" x2="411.5726" y2="704.8055">
			<stop  offset="0" style="stop-color:#FFFFFF"/>
			<stop  offset="1" style="stop-color:#231F20"/>
		</linearGradient>
		<path fill="url(#SVGID_32_)" d="M420.2,792.5c-1.2-1.7-2-3.8-2.2-6.5c-0.8-7.5-1.1-14-1.3-17.2c-2.5,2.8-8.1,9.3-11.3,16.3
			c-0.9,2-1.7,4.5-2.3,7.4H420.2z"/>
		<linearGradient id="SVGID_33_" gradientUnits="userSpaceOnUse" x1="537.2571" y1="797.91" x2="537.2571" y2="704.8055">
			<stop  offset="0" style="stop-color:#FFFFFF"/>
			<stop  offset="1" style="stop-color:#231F20"/>
		</linearGradient>
		<polygon fill="url(#SVGID_33_)" points="537.3,777.4 473.4,777.4 461.3,767.7 537.3,767.7 613.2,767.7 601.1,777.4 		"/>
		<linearGradient id="SVGID_34_" gradientUnits="userSpaceOnUse" x1="537.257" y1="797.91" x2="537.257" y2="704.8055">
			<stop  offset="0" style="stop-color:#FFFFFF"/>
			<stop  offset="1" style="stop-color:#231F20"/>
		</linearGradient>
		<path fill="url(#SVGID_34_)" d="M422.3,792.5h230c1.5-1.5,2.4-3.8,2.7-6.7c0.6-6,1-11.4,1.2-14.9h-36.3l-16.3,13.3H470.9
			L454.6,771h-36.3c0.2,3.5,0.5,8.9,1.2,14.9C419.9,789.1,421,791.2,422.3,792.5z M631.4,771.8c7.5,0,13.3,3.7,13.3,8.3
			c0,4.7-5.8,8.3-13.3,8.3s-13.3-3.7-13.3-8.3C618.1,775.4,624,771.8,631.4,771.8z M443.1,771.8c7.5,0,13.3,3.7,13.3,8.3
			c0,4.7-5.8,8.3-13.3,8.3c-7.5,0-13.3-3.7-13.3-8.3C429.8,775.4,435.6,771.8,443.1,771.8z"/>
		<linearGradient id="SVGID_35_" gradientUnits="userSpaceOnUse" x1="537.2571" y1="797.91" x2="537.2571" y2="704.8055">
			<stop  offset="0" style="stop-color:#FFFFFF"/>
			<stop  offset="1" style="stop-color:#231F20"/>
		</linearGradient>
		<path fill="url(#SVGID_35_)" d="M656.2,769.4h-36.9L603,782.6h-65.8h-65.8l-16.3-13.3h-36.9c0-0.7,0-1.2-0.1-1.6h40.5l14.1,11.3
			h64.4h64.4l14.1-11.3h40.5C656.3,768.1,656.2,768.7,656.2,769.4z"/>
		<linearGradient id="SVGID_36_" gradientUnits="userSpaceOnUse" x1="631.4261" y1="797.91" x2="631.4261" y2="704.8055">
			<stop  offset="0" style="stop-color:#FFFFFF"/>
			<stop  offset="1" style="stop-color:#231F20"/>
		</linearGradient>
		<path fill="url(#SVGID_36_)" d="M631.4,786.8c-6.3,0-11.7-3.1-11.7-6.7c0-3.6,5.3-6.7,11.7-6.7s11.7,3.1,11.7,6.7
			C643.1,783.8,637.8,786.8,631.4,786.8z"/>
		<linearGradient id="SVGID_37_" gradientUnits="userSpaceOnUse" x1="1188.2706" y1="797.91" x2="1188.2706" y2="704.8055">
			<stop  offset="0" style="stop-color:#FFFFFF"/>
			<stop  offset="1" style="stop-color:#231F20"/>
		</linearGradient>
		<path fill="url(#SVGID_37_)" d="M1321.4,792.5c-2.8-6.6-7.4-15.6-8.5-17.7h-37.2c0.9,1.5,1.4,3.3,1.4,5.2
			c0,5.7-4.6,10.4-10.4,10.4c-5.7,0-10.4-4.6-10.4-10.4c0-0.7,0.1-1.4,0.2-2.1h-136.9c0.1,0.7,0.2,1.4,0.2,2.1
			c0,5.7-4.6,10.4-10.4,10.4c-5.7,0-10.4-4.6-10.4-10.4c0-1.9,0.5-3.7,1.4-5.2h-37.2c-1.1,2.1-5.7,11.1-8.5,17.7H1321.4z"/>
		<linearGradient id="SVGID_38_" gradientUnits="userSpaceOnUse" x1="1306.2769" y1="797.91" x2="1306.2769" y2="704.8055">
			<stop  offset="0" style="stop-color:#FFFFFF"/>
			<stop  offset="1" style="stop-color:#231F20"/>
		</linearGradient>
		<path fill="url(#SVGID_38_)" d="M1314.2,773.7c0.3,0.6,5.9,11.4,9,18.8h0.7v-36.3c0-6.8-5.6-12.4-12.4-12.4H1301
			c-6.8,0-12.4,5.6-12.4,12.4v17h25.3L1314.2,773.7z"/>
		<linearGradient id="SVGID_39_" gradientUnits="userSpaceOnUse" x1="1109.6954" y1="797.91" x2="1109.6954" y2="704.8055">
			<stop  offset="0" style="stop-color:#FFFFFF"/>
			<stop  offset="1" style="stop-color:#231F20"/>
		</linearGradient>
		<path fill="url(#SVGID_39_)" d="M1109.7,788.8c-4.8,0-8.7-3.9-8.7-8.7c0-4.8,3.9-8.7,8.7-8.7c4.8,0,8.7,3.9,8.7,8.7
			C1118.4,784.9,1114.5,788.8,1109.7,788.8z"/>
		<linearGradient id="SVGID_40_" gradientUnits="userSpaceOnUse" x1="1070.2645" y1="797.91" x2="1070.2645" y2="704.8055">
			<stop  offset="0" style="stop-color:#FFFFFF"/>
			<stop  offset="1" style="stop-color:#231F20"/>
		</linearGradient>
		<path fill="url(#SVGID_40_)" d="M1053.3,792.5c3.1-7.5,8.7-18.3,9-18.8l0.2-0.4h25.3v-17c0-6.8-5.6-12.4-12.4-12.4H1065
			c-6.8,0-12.4,5.6-12.4,12.4v36.3H1053.3z"/>
		<linearGradient id="SVGID_41_" gradientUnits="userSpaceOnUse" x1="1266.8459" y1="797.91" x2="1266.8459" y2="704.8055">
			<stop  offset="0" style="stop-color:#FFFFFF"/>
			<stop  offset="1" style="stop-color:#231F20"/>
		</linearGradient>
		<path fill="url(#SVGID_41_)" d="M1266.8,788.8c-4.8,0-8.7-3.9-8.7-8.7c0-4.8,3.9-8.7,8.7-8.7c4.8,0,8.7,3.9,8.7,8.7
			C1275.6,784.9,1271.7,788.8,1266.8,788.8z"/>
		<linearGradient id="SVGID_42_" gradientUnits="userSpaceOnUse" x1="862.764" y1="797.91" x2="862.764" y2="704.8055">
			<stop  offset="0" style="stop-color:#FFFFFF"/>
			<stop  offset="1" style="stop-color:#231F20"/>
		</linearGradient>
		<path fill="url(#SVGID_42_)" d="M995.7,792.5c-0.8-4.6-1.8-8.5-2.9-11.1c-4.4-10.2-15.3-10.7-19-10.5c-0.4,4.6-8,8.2-17.5,8.2
			c-8.9,0-16.1-3.2-17.3-7.4H786.5c-1.2,4.2-8.4,7.4-17.3,7.4c-9.5,0-17-3.6-17.5-8.2c-3.7-0.1-14.7,0.4-19,10.5
			c-1.1,2.6-2.1,6.5-2.9,11.1H995.7z"/>
		<linearGradient id="SVGID_43_" gradientUnits="userSpaceOnUse" x1="769.2018" y1="797.91" x2="769.2018" y2="704.8055">
			<stop  offset="0" style="stop-color:#FFFFFF"/>
			<stop  offset="1" style="stop-color:#231F20"/>
		</linearGradient>
		<path fill="url(#SVGID_43_)" d="M769.2,777.5c-8.6,0-15.9-3.2-15.9-7c0-3.8,7.3-7,15.9-7s15.9,3.2,15.9,7
			C785.1,774.3,777.8,777.5,769.2,777.5z"/>
		<linearGradient id="SVGID_44_" gradientUnits="userSpaceOnUse" x1="747.4734" y1="797.91" x2="747.4734" y2="704.8055">
			<stop  offset="0" style="stop-color:#FFFFFF"/>
			<stop  offset="1" style="stop-color:#231F20"/>
		</linearGradient>
		<path fill="url(#SVGID_44_)" d="M728.2,792.5c0.9-4.9,1.9-9,3.1-11.8c4.4-10.3,15.1-11.5,19.7-11.5c0.3,0,0.6,0,0.9,0
			c1-3.9,7.2-7,15.2-7.4v-5.5c0-6.9-5.6-12.4-12.4-12.4h-14.3c-6.9,0-12.4,5.6-12.4,12.4v36.2H728.2z"/>
		<linearGradient id="SVGID_45_" gradientUnits="userSpaceOnUse" x1="978.0541" y1="797.91" x2="978.0541" y2="704.8055">
			<stop  offset="0" style="stop-color:#FFFFFF"/>
			<stop  offset="1" style="stop-color:#231F20"/>
		</linearGradient>
		<path fill="url(#SVGID_45_)" d="M973.7,769.3c0.3,0,0.6,0,0.9,0c4.6,0,15.3,1.2,19.7,11.5c1.2,2.8,2.2,6.9,3.1,11.8h0.3v-36.2
			c0-6.9-5.6-12.4-12.4-12.4h-14.3c-6.9,0-12.4,5.6-12.4,12.4v5.5C966.5,762.3,972.7,765.4,973.7,769.3z"/>
		<linearGradient id="SVGID_46_" gradientUnits="userSpaceOnUse" x1="956.3257" y1="797.91" x2="956.3257" y2="704.8055">
			<stop  offset="0" style="stop-color:#FFFFFF"/>
			<stop  offset="1" style="stop-color:#231F20"/>
		</linearGradient>
		<path fill="url(#SVGID_46_)" d="M972.2,770.5c0,3.8-7.3,7-15.9,7c-8.6,0-15.9-3.2-15.9-7c0-3.8,7.3-7,15.9-7
			C964.9,763.4,972.2,766.6,972.2,770.5z"/>
	</g>
</g>
</svg>
