<?xml version="1.0" encoding="utf-8"?>
<!-- Generator: Adobe Illustrator 21.0.1, SVG Export Plug-In . SVG Version: 6.00 Build 0)  -->
<svg version="1.1" xmlns="http://www.w3.org/2000/svg" xmlns:xlink="http://www.w3.org/1999/xlink" x="0px" y="0px" width="1400px"
	 height="980px" viewBox="0 0 1400 980" enable-background="new 0 0 1400 980" xml:space="preserve">
<g id="background_2_">
	<rect id="color" fill="#FFFFFF" width="1400" height="980"/>
</g>
<g id="delorean_silhouette">
	<rect id="background_1_" x="712.7" y="57.3" fill="#8FC9B4" width="649.1" height="865.5"/>
	<g id="title_1_">
		<path fill="#2F2F2F" d="M840.4,712c0,5.5-2.7,8.2-8.2,8.2h-49.4v-16.5h37.1v-4.1h-37.1v-16.5h49.4c5.5,0,8.2,2.7,8.2,8.2V712z"/>
		<path fill="#2F2F2F" d="M904.9,720.2h-49.4c-2.5,0-4.5-0.8-6-2.4c-1.5-1.6-2.3-3.5-2.3-5.9v-20.6c0-2.2,0.8-4.2,2.5-5.8
			c1.6-1.6,3.6-2.4,5.8-2.4h41.2c5.5,0,8.2,2.7,8.2,8.2v4.1h-37.1v4.1h37.1V720.2z M884.3,691.4v-4.1h-16.5v4.1H884.3z"/>
		<path fill="#2F2F2F" d="M969.3,720.2h-49.4c-2.3,0-4.2-0.8-5.8-2.5c-1.6-1.7-2.4-3.6-2.4-5.7v-28.8h20.6v20.6h37.1V720.2z"/>
		<path fill="#2F2F2F" d="M1033.8,712c0,5.5-2.7,8.2-8.2,8.2h-41.2c-5.5,0-8.2-2.7-8.2-8.2v-20.6c0-2.2,0.7-4.1,2-5.7
			c1.5-1.7,3.6-2.6,6.3-2.6h41.2c2.6,0,4.6,0.8,6,2.3c1.5,1.5,2.2,3.5,2.2,5.9V712z M1013.3,703.8v-4.1h-16.5v4.1H1013.3z"/>
		<path fill="#2F2F2F" d="M1098.3,699.7h-37.1v20.6h-20.6v-28.8c0-2.6,0.7-4.7,2.2-6.1c1.4-1.4,3.5-2.1,6.1-2.1h49.4V699.7z"/>
		<path fill="#2F2F2F" d="M1162.8,720.2h-49.4c-2.5,0-4.5-0.8-6-2.4c-1.5-1.6-2.3-3.5-2.3-5.9v-20.6c0-2.2,0.8-4.2,2.5-5.8
			c1.6-1.6,3.6-2.4,5.8-2.4h41.2c5.5,0,8.2,2.7,8.2,8.2v4.1h-37.1v4.1h37.1V720.2z M1142.2,691.4v-4.1h-16.5v4.1H1142.2z"/>
		<path fill="#2F2F2F" d="M1228,720.2h-49.4c-2.6,0-4.6-0.9-6.1-2.6c-1.4-1.6-2.1-3.4-2.1-5.6v-4.1c0-5.5,2.7-8.2,8.2-8.2h28.8v-4.1
			h-37.1v-4.1c0-2.3,0.9-4.3,2.7-5.9c1.6-1.5,3.5-2.3,5.5-2.3h41.2c2.6,0,4.6,0.8,6.1,2.4c1.4,1.5,2.1,3.5,2.1,5.9V720.2z
			 M1207.4,707.9v-4.1h-16.5v4.1H1207.4z"/>
		<path fill="#2F2F2F" d="M1291.8,720.2h-24.7v-20.6h-8.2v20.6h-24.7v-37h49.4c2.2,0,4,0.7,5.7,2.2c1.7,1.6,2.6,3.6,2.6,6V720.2z"/>
	</g>
	<g id="car_2_">
		<path fill="#2F2F2F" d="M1287.3,638.1c0,1.8-1.7,3.3-3.8,3.3H791c-2.1,0-3.8-1.5-3.8-3.3c0-1.8,1.7-3.3,3.8-3.3h492.5
			C1285.6,634.8,1287.3,636.3,1287.3,638.1z"/>
		<g>
			<path fill="#2F2F2F" d="M1301.1,488.4l-19.2-36.2c-0.2-0.4-0.4-0.7-0.7-1c-0.2-0.5-0.5-1-0.8-1.4c0,0-26.1-29-40.5-44.8
				c5.5-2.5,10.6-4.9,15.5-7.4c1.1-0.6,1.9-1.8,1.9-3.1c0.1-4.4,0-13.8,0-14.2c0-1.9-1.6-3.5-3.5-3.5h-47.1
				c-14.7-11.1-32.8-24.9-44.6-33.9c0,0-12.3-8.6-16.3-11.5c-3.4-2.8-18.8-2.8-18.8-2.8H947.6c0,0-15.1-0.5-18.8,2.8
				c-4,2.9-16.3,11.5-16.3,11.5c-11.8,9-30,22.8-44.6,33.9h-50c-1.9,0-3.5,1.6-3.5,3.5c0,0.4-0.1,9.8,0,14.2c0,1.3,0.8,2.5,1.9,3.1
				c5.5,2.8,11.1,5.5,17.5,8.3c-14.5,16-39.7,43.9-39.7,43.9c-0.3,0.5-0.6,0.9-0.8,1.4c-0.3,0.3-0.5,0.7-0.7,1l-19.2,36.2
				c-2.6,4.8-3.7,9.8-3.4,14.4c-0.3,5.3,1.3,10.3,4.6,14.1c1.3,3,2.9,6.1,4.9,9.4c1.6,3.5,3.5,7.6,5.4,11.9
				c1.6,5.3,2.5,10.9,2.3,16.5c0,17.5,0,48,0,63.3c0,5.2,4.2,9.3,9.3,9.3h59.2c5.2,0,9.3-4.2,9.3-9.3v-9.9h344.2v9.9
				c0,5.2,4.2,9.3,9.3,9.3h59.2c5.2,0,9.3-4.2,9.3-9.3c0-15.3,0.1-45.8,0.1-63.3c-0.2-5.3,0.5-10.6,2-15.6c1.9-4.4,3.9-9,5.7-12.8
				c2.2-4.7,3.9-8.4,4.6-9.1c0.1-0.1,0.2-0.2,0.3-0.3c3.3-3.8,4.9-8.7,4.6-14.1C1304.8,498.2,1303.6,493.2,1301.1,488.4z
				 M1250.2,383.8c0,2.5,0,5.7,0,8.3c-4.8,2.4-9.8,4.8-15.4,7.3c-2.4-2.6-3.9-4.2-4.2-4.4c-0.2-0.1-6.1-4.6-14.7-11.2H1250.2z
				 M936.7,335.2h201.1l11.4,6.8H925.3L936.7,335.2z M921.2,345.2h230.6l48.4,36.1l26.1,19.4h-3.9H849.2h-1l10.5-8L921.2,345.2z
				 M821.5,392.2c0-2.6,0-5.9,0-8.3h36.7c-1.2,1-2.6,2.2-4,3.4c-6.1,4.7-10.1,7.7-10.3,7.8c-0.3,0.2-1.8,1.8-4.1,4.4
				c-0.3,0.3-0.7,0.6-1,0.9C832.4,397.5,826.8,394.9,821.5,392.2z M1273.7,558.1l-2.6,4.6H803.4l-2.6-4.6l-1.4-3.8h475.7
				L1273.7,558.1z M855.5,539.3v-7.1c0-1.6,1.3-2.8,2.8-2.8h31.2c1.6,0,2.8,1.3,2.8,2.8v7.1c0,1.6-1.3,2.8-2.8,2.8h-31.2
				C856.8,542.1,855.5,540.9,855.5,539.3z M1182.1,539.3v-7.1c0-1.6,1.3-2.8,2.8-2.8h31.2c1.6,0,2.8,1.3,2.8,2.8v7.1
				c0,1.6-1.3,2.8-2.8,2.8h-31.2C1183.4,542.1,1182.1,540.9,1182.1,539.3z M1297.4,502.7c-0.7,6.9-6.6,11.6-16.1,11.6H793.2
				c-9.5,0-15.3-4.7-16.1-11.6c-0.3-3.3,0.5-7,2.6-11l7.2-13.6c6.6-12.4,12-22.6,12-22.6h476.7c0,0,5.4,10.2,12,22.6l7.2,13.6
				C1296.9,495.7,1297.7,499.5,1297.4,502.7z"/>
			<path fill="#2F2F2F" d="M1270.5,464.1H804l-16.4,32.3c-1.6,3-0.8,12.2,4.8,12.2h489.8c5.6,0,6.4-9.2,4.8-12.2L1270.5,464.1z
				 M867.1,500.1c0,1.6-1.3,2.8-2.8,2.8H817c-1.6,0-2.8-1.3-2.8-2.8v-27c0-1.6,1.3-2.8,2.8-2.8h47.2c1.6,0,2.8,1.3,2.8,2.8V500.1z
				 M935.2,500.1c0,1.6-1.3,2.8-2.8,2.8h-47.2c-1.6,0-2.8-1.3-2.8-2.8v-27c0-1.6,1.3-2.8,2.8-2.8h47.2c1.6,0,2.8,1.3,2.8,2.8V500.1z
				 M1132.5,502.3H942.1c-1.2,0-2.1-0.9-2.1-2.1c0-1.2,0.9-2.1,2.1-2.1h190.4c1.2,0,2.1,0.9,2.1,2.1
				C1134.6,501.4,1133.6,502.3,1132.5,502.3z M1132.5,493.2H942.1c-1.2,0-2.1-0.9-2.1-2.1c0-1.2,0.9-2.1,2.1-2.1h190.4
				c1.2,0,2.1,0.9,2.1,2.1C1134.6,492.3,1133.6,493.2,1132.5,493.2z M1132.5,484.2H942.1c-1.2,0-2.1-0.9-2.1-2.1
				c0-1.2,0.9-2.1,2.1-2.1h190.4c1.2,0,2.1,0.9,2.1,2.1C1134.6,483.2,1133.6,484.2,1132.5,484.2z M1132.5,475.1H942.1
				c-1.2,0-2.1-0.9-2.1-2.1c0-1.2,0.9-2.1,2.1-2.1h190.4c1.2,0,2.1,0.9,2.1,2.1C1134.6,474.2,1133.6,475.1,1132.5,475.1z
				 M1192.2,500.1c0,1.6-1.3,2.8-2.8,2.8h-47.2c-1.6,0-2.8-1.3-2.8-2.8v-27c0-1.6,1.3-2.8,2.8-2.8h47.2c1.6,0,2.8,1.3,2.8,2.8V500.1
				z M1260.4,500.1c0,1.6-1.3,2.8-2.8,2.8h-47.2c-1.6,0-2.8-1.3-2.8-2.8v-27c0-1.6,1.3-2.8,2.8-2.8h47.2c1.6,0,2.8,1.3,2.8,2.8
				V500.1z"/>
			<path fill="#2F2F2F" d="M980.6,381.2h-46.8c-9.4,0-17,7.6-17,17h80.9C997.7,388.8,990,381.2,980.6,381.2z"/>
			<path fill="#2F2F2F" d="M1140.8,381.2h-46.8c-9.4,0-17,7.6-17,17h80.9C1157.8,388.8,1150.2,381.2,1140.8,381.2z"/>
		</g>
	</g>
</g>
<g id="delorean_illustration">
	<rect id="background" x="38.2" y="57.3" fill="#E87758" width="649.1" height="865.5"/>
	<g id="car_1_">
		<g>
			<g>
				<path fill="#B1B1B1" d="M579.2,394.4c0.1-4.4,0-14.1,0-14.1l-50,0c0,0,17.9,14.8,28.7,24.1C565.2,401.2,572.1,398,579.2,394.4z"
					/>
				<path fill="#373737" d="M557.8,407.9c-0.8,0-1.7-0.3-2.3-0.9c-10.7-9.2-28.4-23.9-28.6-24.1c-1.2-1-1.6-2.5-1.1-3.9
					c0.5-1.4,1.8-2.3,3.3-2.3h50c1.9,0,3.5,1.6,3.5,3.5c0,0.4,0.1,9.8,0,14.2c0,1.3-0.8,2.5-1.9,3.1c-6.6,3.4-13.5,6.6-21.6,10.1
					C558.8,407.8,558.3,407.9,557.8,407.9L557.8,407.9z M539,383.8c5.6,4.7,13.4,11.2,19.5,16.4c6.3-2.8,11.9-5.4,17.2-8.1
					c0-2.6,0-5.9,0-8.3H539L539,383.8z"/>
			</g>
			<g>
				<path fill="#B1B1B1" d="M143.4,394.4c-0.1-4.4,0-14.1,0-14.1l50,0c0,0-17.9,14.8-28.7,24.1C157.5,401.2,150.5,398,143.4,394.4z"
					/>
				<path fill="#373737" d="M164.8,407.9c-0.5,0-1-0.1-1.4-0.3c-8.1-3.5-14.9-6.7-21.6-10.1c-1.2-0.6-1.9-1.8-1.9-3.1
					c-0.1-4.4,0-13.8,0-14.2c0-1.9,1.6-3.5,3.5-3.5l0,0h50c1.5,0,2.8,0.9,3.3,2.3c0.5,1.4,0.1,3-1.1,3.9c-0.2,0.1-18,14.9-28.6,24.1
					C166.4,407.6,165.6,407.9,164.8,407.9L164.8,407.9z M146.9,392.2c5.4,2.7,10.9,5.3,17.2,8.1c6.1-5.2,13.8-11.7,19.5-16.4h-36.7
					C146.9,386.3,146.9,389.6,146.9,392.2L146.9,392.2z"/>
			</g>
			<g>
				<path fill="#2F2F2F" d="M626.5,488.4l-19.2-36.2c-0.2-0.4-0.4-0.7-0.7-1c-0.2-0.5-0.5-1-0.8-1.4c0,0-48.2-53.6-49.7-54.8
					c-0.5-0.3-46.1-34.9-68.7-52.2c0,0-12.3-8.6-16.3-11.5c-3.4-2.8-18.8-2.8-18.8-2.8H273c0,0-15.1-0.5-18.8,2.8
					c-4,2.9-16.3,11.5-16.3,11.5c-22.6,17.3-68.2,51.9-68.7,52.2c-1.6,1.2-49.7,54.8-49.7,54.8c-0.3,0.5-0.6,0.9-0.8,1.4
					c-0.3,0.3-0.5,0.7-0.7,1l-19.2,36.2c-2.6,4.8-3.7,9.8-3.4,14.4c-0.3,5.3,1.3,10.3,4.6,14.1c1.3,3,2.9,6.1,4.9,9.4
					c1.6,3.5,3.5,7.6,5.4,11.9c1.6,5.3,2.5,10.9,2.3,16.5c0,17.5,0,48,0,63.3c0,5.2,4.2,9.3,9.3,9.3h59.2c5.2,0,9.3-4.2,9.3-9.3
					v-9.9h344.2v9.9c0,5.2,4.2,9.3,9.3,9.3h59.2c5.2,0,9.3-4.2,9.3-9.3c0-15.3,0.1-45.8,0.1-63.3c-0.2-5.3,0.5-10.6,2-15.6
					c1.9-4.4,3.9-9,5.7-12.8c2.2-4.7,3.9-8.4,4.6-9.1c0.1-0.1,0.2-0.2,0.3-0.3c3.3-3.8,4.9-8.7,4.6-14.1
					C630.3,498.2,629.1,493.2,626.5,488.4z"/>
			</g>
			<g>
				<path fill="#B1B1B1" d="M128.4,449.7L128.4,449.7l-0.3,0l38.6-42.8h24.1c0,0-24.3,28.4-36.1,43l0-0.1l0.1-0.1H128.4z"/>
				<polygon fill="#F7F7F7" points="128.4,449.7 154.7,449.7 154.6,449.7 150.7,454 125.3,454 128.4,449.7 				"/>
				<polygon fill="#B1B1B1" points="463.3,335.2 262.2,335.2 250.8,341.9 474.7,341.9 				"/>
				<polygon fill="#808080" points="477.3,345.2 246.7,345.2 173.6,400.7 551.9,400.7 				"/>
				<polygon fill="#B1B1B1" points="567.5,449.7 531.4,406.9 194,406.9 158,449.7 				"/>
				<path fill="#B1B1B1" d="M597,449.7L597,449.7l0.3,0l-38.6-42.8h-24.1c0,0,24.3,28.4,36.2,43l0-0.1l-0.1-0.1H597z"/>
				<polygon fill="#F7F7F7" points="597,449.7 570.8,449.7 570.8,449.7 574.7,454 600.2,454 597,449.7 				"/>
				<path fill="#F7F7F7" d="M622.8,502.7c-0.7,6.9-6.6,11.6-16.1,11.6H118.7c-9.5,0-15.3-4.7-16.1-11.6c-0.7,8.4,5.3,14.4,16.1,14.4
					h488.1C617.5,517.1,623.6,511.1,622.8,502.7z"/>
				<path fill="#B1B1B1" d="M620.3,491.7l-7.2-13.6c-6.6-12.4-12-22.6-12-22.6H124.4c0,0-5.4,10.2-12,22.6l-7.2,13.6
					c-2.1,4-2.9,7.7-2.6,11c0.7,6.9,6.6,11.6,16.1,11.6h488.1c9.5,0,15.3-4.7,16.1-11.6C623.2,499.5,622.4,495.7,620.3,491.7z
					 M607.6,508.6H117.8c-5.6,0-6.4-9.2-4.8-12.2l16.4-32.3H596l16.4,32.3C614,499.4,613.3,508.6,607.6,508.6z"/>
				<path fill="#2F2F2F" d="M612.4,496.4L596,464.1H129.5L113,496.4c-1.6,3-0.8,12.2,4.8,12.2h489.8
					C613.3,508.6,614,499.4,612.4,496.4z M192.5,500.1c0,1.6-1.3,2.8-2.8,2.8h-47.2c-1.6,0-2.8-1.3-2.8-2.8v-27
					c0-1.6,1.3-2.8,2.8-2.8h47.2c1.6,0,2.8,1.3,2.8,2.8V500.1z M260.7,500.1c0,1.6-1.3,2.8-2.8,2.8h-47.2c-1.6,0-2.8-1.3-2.8-2.8
					v-27c0-1.6,1.3-2.8,2.8-2.8h47.2c1.6,0,2.8,1.3,2.8,2.8V500.1z M517.7,500.1c0,1.6-1.3,2.8-2.8,2.8h-47.2
					c-1.6,0-2.8-1.3-2.8-2.8v-27c0-1.6,1.3-2.8,2.8-2.8h47.2c1.6,0,2.8,1.3,2.8,2.8V500.1z M585.8,500.1c0,1.6-1.3,2.8-2.8,2.8
					h-47.2c-1.6,0-2.8-1.3-2.8-2.8v-27c0-1.6,1.3-2.8,2.8-2.8H583c1.6,0,2.8,1.3,2.8,2.8V500.1z"/>
				<polygon fill="#373737" points="115,526.6 123.2,545.9 602.3,545.9 610.4,526.6 				"/>
				<polygon fill="#F7F7F7" points="567.5,449.7 158,449.7 153.9,454 571.5,454 				"/>
				<polygon fill="#B1B1B1" points="126.3,558.1 128.9,562.7 596.6,562.7 599.2,558.1 				"/>
				<polygon fill="#F7F7F7" points="124.9,554.3 126.3,558.1 599.2,558.1 600.6,554.3 				"/>
			</g>
		</g>
		<path fill="#2F2F2F" d="M612.7,638.1c0,1.8-1.7,3.3-3.8,3.3H116.5c-2.1,0-3.7-1.5-3.7-3.3c0-1.8,1.7-3.3,3.7-3.3H609
			C611,634.8,612.7,636.3,612.7,638.1z"/>
		<path fill="#A65A34" d="M217.9,539.3c0,1.6-1.3,2.8-2.8,2.8h-31.2c-1.6,0-2.8-1.3-2.8-2.8v-7.1c0-1.6,1.3-2.8,2.8-2.8h31.2
			c1.6,0,2.8,1.3,2.8,2.8V539.3z"/>
		<path fill="#A65A34" d="M544.4,539.3c0,1.6-1.3,2.8-2.8,2.8h-31.2c-1.6,0-2.8-1.3-2.8-2.8v-7.1c0-1.6,1.3-2.8,2.8-2.8h31.2
			c1.6,0,2.8,1.3,2.8,2.8V539.3z"/>
		<g>
			<path fill="#6C6C6C" d="M306.1,383.5h-46.8c-9.4,0-17,7.6-17,17h80.9C323.1,391.2,315.5,383.5,306.1,383.5z"/>
			<path fill="#6C6C6C" d="M466.2,383.5h-46.8c-9.4,0-17,7.6-17,17h80.9C483.3,391.2,475.6,383.5,466.2,383.5z"/>
		</g>
		<g>
			<path fill="#1A1A1A" d="M267.5,475.1h190.4c1.2,0,2.1-0.9,2.1-2.1c0-1.2-0.9-2.1-2.1-2.1H267.5c-1.2,0-2.1,0.9-2.1,2.1
				C265.4,474.2,266.4,475.1,267.5,475.1z"/>
			<path fill="#1A1A1A" d="M457.9,480H267.5c-1.2,0-2.1,0.9-2.1,2.1c0,1.2,0.9,2.1,2.1,2.1h190.4c1.2,0,2.1-0.9,2.1-2.1
				C460,480.9,459.1,480,457.9,480z"/>
			<path fill="#1A1A1A" d="M457.9,489.1H267.5c-1.2,0-2.1,0.9-2.1,2.1c0,1.2,0.9,2.1,2.1,2.1h190.4c1.2,0,2.1-0.9,2.1-2.1
				C460,490,459.1,489.1,457.9,489.1z"/>
			<path fill="#1A1A1A" d="M457.9,498.1H267.5c-1.2,0-2.1,0.9-2.1,2.1c0,1.2,0.9,2.1,2.1,2.1h190.4c1.2,0,2.1-0.9,2.1-2.1
				C460,499.1,459.1,498.1,457.9,498.1z"/>
		</g>
		<g>
			<path fill="#FFFFFF" d="M142.5,470.3h47.2c1.6,0,2.8,1.3,2.8,2.8v27c0,1.6-1.3,2.8-2.8,2.8h-47.2c-1.6,0-2.8-1.3-2.8-2.8v-27
				C139.6,471.5,140.9,470.3,142.5,470.3z"/>
			<path fill="#FFFFFF" d="M210.6,470.3h47.2c1.6,0,2.8,1.3,2.8,2.8v27c0,1.6-1.3,2.8-2.8,2.8h-47.2c-1.6,0-2.8-1.3-2.8-2.8v-27
				C207.8,471.5,209,470.3,210.6,470.3z"/>
			<path fill="#FFFFFF" d="M583,470.3h-47.2c-1.6,0-2.8,1.3-2.8,2.8v27c0,1.6,1.3,2.8,2.8,2.8H583c1.6,0,2.8-1.3,2.8-2.8v-27
				C585.8,471.5,584.6,470.3,583,470.3z"/>
			<path fill="#FFFFFF" d="M514.9,470.3h-47.2c-1.6,0-2.8,1.3-2.8,2.8v27c0,1.6,1.3,2.8,2.8,2.8h47.2c1.6,0,2.8-1.3,2.8-2.8v-27
				C517.7,471.5,516.4,470.3,514.9,470.3z"/>
		</g>
		<g opacity="0.3">
			<polygon fill="#FFFFFF" points="364.2,399.3 413.9,346.6 399.9,346.6 351,399.3 			"/>
			<polygon fill="#FFFFFF" points="334.8,399.3 384,346.6 360.8,346.6 311.6,399.3 			"/>
		</g>
	</g>
	<g id="DMC_logo_3_">
		<path fill="#CCCCCC" d="M382.4,479.5c-1.3,0-2.4,0.5-3.2,1.3c-0.8,0.8-1.3,1.9-1.3,3.1v5.5c0,1.2,0.5,2.3,1.3,3.1
			c0.8,0.8,2,1.3,3.2,1.3h17.4c0.3,0,0.6-0.3,0.6-0.6v-5.6c0-0.3-0.3-0.5-0.6-0.5h-13.6l0,0c-0.1,0-0.3-0.1-0.4-0.1
			c-0.1-0.1-0.1-0.2-0.1-0.3l0,0c0-0.1,0.1-0.3,0.1-0.3c0.1-0.1,0.2-0.1,0.4-0.1h13.6c0.3,0,0.6-0.3,0.6-0.5V480
			c0-0.3-0.3-0.5-0.6-0.5H382.4L382.4,479.5z M340,486.6c0-0.1-0.1-0.3-0.1-0.3c-0.1-0.1-0.2-0.1-0.4-0.1h-13.8
			c-0.3,0-0.5-0.3-0.5-0.5V480c0-0.3,0.3-0.5,0.5-0.5h17.6c1.2,0,2.4,0.5,3.2,1.3c0.9,0.8,1.4,1.9,1.4,3.1v0v5.5
			c0,1.2-0.5,2.3-1.4,3.1c-0.8,0.8-2,1.3-3.2,1.3h-17.6c-0.3,0-0.5-0.3-0.5-0.6v-5.6c0-0.3,0.3-0.5,0.5-0.5h13.8
			c0.1,0,0.3-0.1,0.4-0.1C340,486.8,340,486.7,340,486.6L340,486.6L340,486.6z M366.5,486.6v6.6c0,0.3-0.3,0.6-0.5,0.6h-6.6
			c-0.3,0-0.5-0.3-0.5-0.6v-6.6c0-0.1-0.1-0.2-0.1-0.3c-0.1-0.1-0.2-0.1-0.4-0.1c-0.1,0-0.3,0.1-0.4,0.1c-0.1,0.1-0.1,0.2-0.1,0.3
			v6.6c0,0.3-0.3,0.6-0.5,0.6H351c-0.3,0-0.5-0.3-0.5-0.6v-9.3c0-1.2,0.5-2.3,1.3-3.1c0.8-0.8,1.9-1.3,3.2-1.3h15.7
			c1.2,0,2.4,0.5,3.2,1.3c0.8,0.8,1.3,1.9,1.3,3.1v0v9.3c0,0.3-0.3,0.6-0.5,0.6h-6.5c-0.3,0-0.5-0.3-0.5-0.6v-6.6
			c0-0.1-0.1-0.2-0.1-0.3c-0.1-0.1-0.2-0.1-0.4-0.1c-0.1,0-0.3,0.1-0.4,0.1C366.6,486.4,366.5,486.5,366.5,486.6L366.5,486.6
			L366.5,486.6z"/>
	</g>
	<g id="title">
		<path fill="#2F2F2F" d="M165.8,712c0,5.5-2.7,8.2-8.2,8.2h-49.4v-16.5h37.1v-4.1h-37.1v-16.5h49.4c5.5,0,8.2,2.7,8.2,8.2V712z"/>
		<path fill="#2F2F2F" d="M230.3,720.2h-49.4c-2.5,0-4.5-0.8-6-2.4c-1.5-1.6-2.3-3.5-2.3-5.9v-20.6c0-2.2,0.8-4.2,2.5-5.8
			c1.6-1.6,3.6-2.4,5.8-2.4h41.2c5.5,0,8.2,2.7,8.2,8.2v4.1h-37.1v4.1h37.1V720.2z M209.7,691.4v-4.1h-16.5v4.1H209.7z"/>
		<path fill="#2F2F2F" d="M294.8,720.2h-49.4c-2.3,0-4.2-0.8-5.8-2.5c-1.6-1.7-2.4-3.6-2.4-5.7v-28.8h20.6v20.6h37.1V720.2z"/>
		<path fill="#2F2F2F" d="M359.3,712c0,5.5-2.7,8.2-8.2,8.2h-41.2c-5.5,0-8.2-2.7-8.2-8.2v-20.6c0-2.2,0.7-4.1,2-5.7
			c1.5-1.7,3.6-2.6,6.3-2.6h41.2c2.6,0,4.6,0.8,6,2.3c1.5,1.5,2.2,3.5,2.2,5.9V712z M338.7,703.8v-4.1h-16.5v4.1H338.7z"/>
		<path fill="#2F2F2F" d="M423.8,699.7h-37.1v20.6h-20.6v-28.8c0-2.6,0.7-4.7,2.2-6.1c1.4-1.4,3.5-2.1,6.1-2.1h49.4V699.7z"/>
		<path fill="#2F2F2F" d="M488.3,720.2h-49.4c-2.5,0-4.5-0.8-6-2.4c-1.5-1.6-2.3-3.5-2.3-5.9v-20.6c0-2.2,0.8-4.2,2.5-5.8
			c1.6-1.6,3.6-2.4,5.8-2.4h41.2c5.5,0,8.2,2.7,8.2,8.2v4.1h-37.1v4.1h37.1V720.2z M467.7,691.4v-4.1h-16.5v4.1H467.7z"/>
		<path fill="#2F2F2F" d="M553.4,720.2H504c-2.6,0-4.6-0.9-6.1-2.6c-1.4-1.6-2.1-3.4-2.1-5.6v-4.1c0-5.5,2.7-8.2,8.2-8.2h28.8v-4.1
			h-37.1v-4.1c0-2.3,0.9-4.3,2.7-5.9c1.6-1.5,3.5-2.3,5.5-2.3h41.2c2.6,0,4.6,0.8,6.1,2.4c1.4,1.5,2.1,3.5,2.1,5.9V720.2z
			 M532.9,707.9v-4.1h-16.5v4.1H532.9z"/>
		<path fill="#2F2F2F" d="M617.3,720.2h-24.7v-20.6h-8.2v20.6h-24.7v-37H609c2.2,0,4,0.7,5.7,2.2c1.7,1.6,2.6,3.6,2.6,6V720.2z"/>
	</g>
</g>
</svg>
